<svg xmlns="http://www.w3.org/2000/svg" viewBox="0 0 246.9 200"><title>bell</title><path d="M246.9,196.5l-4-34.6a3.1,3.1,0,0,0-3.1-2.8H126.6v-11H227.2a3.1,3.1,0,0,0,3.1-2.5,3.4,3.4,0,0,0,0-1A107,107,0,0,0,126.6,38.2V24.7a12.6,12.6,0,1,0-6.3,0V38.2A107,107,0,0,0,16.6,145a3.2,3.2,0,0,0,3.1,3.2H120.3v11H7.2A3.1,3.1,0,0,0,4,161.9L0,196.5A3.1,3.1,0,0,0,3.1,200H243.7l1.2-.2A3.2,3.2,0,0,0,246.9,196.5ZM117.5,12.8a6.3,6.3,0,1,1,6.3,6.3A6.3,6.3,0,0,1,117.5,12.8Zm6.3,31.6a100.7,100.7,0,0,1,100.5,97.4H23.2A100.7,100.7,0,0,1,123.8,44.4ZM7,193.7l3.3-28.3h227l3.3,28.3Z" fill="#385f7e"/><path d="M148.6,57.8a91.1,91.1,0,0,0-12.1-2.7,3.1,3.1,0,0,0-.9,6.2,84.9,84.9,0,0,1,11.3,2.5h.9a3.1,3.1,0,0,0,.9-6.2Z" fill="#338c5f"/><path d="M210.1,119.3a90.9,90.9,0,0,0-40.6-52.4,3.1,3.1,0,0,0-3.2,5.4,84.6,84.6,0,0,1,37.8,48.8,3.1,3.1,0,0,0,3,2.3h.9A3.1,3.1,0,0,0,210.1,119.3Z" fill="#338c5f"/></svg>