<svg xmlns="http://www.w3.org/2000/svg" style="display: none;">
    <symbol id="bell" viewBox="0 0 246.9 200">
        <path d="M246.9,196.5l-4-34.6a3.1,3.1,0,0,0-3.1-2.8H126.6v-11H227.2a3.1,3.1,0,0,0,3.1-2.5,3.4,3.4,0,0,0,0-1A107,107,0,0,0,126.6,38.2V24.7a12.6,12.6,0,1,0-6.3,0V38.2A107,107,0,0,0,16.6,145a3.2,3.2,0,0,0,3.1,3.2H120.3v11H7.2A3.1,3.1,0,0,0,4,161.9L0,196.5A3.1,3.1,0,0,0,3.1,200H243.7l1.2-.2A3.2,3.2,0,0,0,246.9,196.5ZM117.5,12.8a6.3,6.3,0,1,1,6.3,6.3A6.3,6.3,0,0,1,117.5,12.8Zm6.3,31.6a100.7,100.7,0,0,1,100.5,97.4H23.2A100.7,100.7,0,0,1,123.8,44.4ZM7,193.7l3.3-28.3h227l3.3,28.3Z" fill="#385f7e"/><path d="M148.6,57.8a91.1,91.1,0,0,0-12.1-2.7,3.1,3.1,0,0,0-.9,6.2,84.9,84.9,0,0,1,11.3,2.5h.9a3.1,3.1,0,0,0,.9-6.2Z" fill="#338c5f"/><path d="M210.1,119.3a90.9,90.9,0,0,0-40.6-52.4,3.1,3.1,0,0,0-3.2,5.4,84.6,84.6,0,0,1,37.8,48.8,3.1,3.1,0,0,0,3,2.3h.9A3.1,3.1,0,0,0,210.1,119.3Z" fill="#338c5f"/>
    </symbol>
    <symbol id="edit" viewBox="0 0 193.6 200">
        <path d="M118.4,73.3H35A3.3,3.3,0,0,0,35,80h83.3a3.3,3.3,0,0,0,0-6.7Z" fill="#385f7e"/><path d="M35,53.3H68.4a3.3,3.3,0,0,0,0-6.7H35a3.3,3.3,0,0,0,0,6.7Z" fill="#385f7e"/><path d="M118.4,100H35a3.3,3.3,0,0,0,0,6.7h83.3a3.3,3.3,0,0,0,0-6.7Z" fill="#385f7e"/><path d="M91.7,126.7H35a3.3,3.3,0,1,0,0,6.7H91.7a3.3,3.3,0,1,0,0-6.7Z" fill="#385f7e"/><path d="M81.7,160a3.3,3.3,0,0,0,0-6.7H35a3.3,3.3,0,0,0,0,6.7Z" fill="#385f7e"/><path d="M6.7,6.7h96.7V53.3H150v60h6.7V48.6L108,0H0V200H96.7v-6.7H6.7ZM110,11.4l35.3,35.3H110Z" fill="#385f7e"/><path d="M190.7,123.5l-9.5-9.5a10.2,10.2,0,0,0-14.1,0l-51.3,51.3-7.1,25.9-1.7,1.7a3.3,3.3,0,0,0,0,4.7h0a3.3,3.3,0,0,0,4.7,0l1.7-1.7,25.9-7.1,51.3-51.3a9.9,9.9,0,0,0,0-14.1ZM123.5,167l34.1-34.1L171.8,147l-34.1,34.1Zm-3,6.4,10.7,10.7-14.8,4ZM186,132.8l-9.5,9.5-14.1-14.1,9.5-9.5a3.4,3.4,0,0,1,4.6,0l9.5,9.5a3.3,3.3,0,0,1,0,4.6Z" fill="#338c5f"/>
    </symbol>
    <symbol id="files" viewBox="0 0 143.7 200">
        <path d="M140.6,28.2l-9.3.4h.2V21.9a3.1,3.1,0,0,0-3.1-3.1h-9.5V12.5a3.1,3.1,0,0,0-3.1-3.1H37.8a10.1,10.1,0,0,0-20.2,0H3.1A3.1,3.1,0,0,0,0,12.5V172a3.1,3.1,0,0,0,3.1,3.1H9.4v9.5a3.1,3.1,0,0,0,3.1,3.1h6.3v9.1a3.1,3.1,0,0,0,3.1,3.1H140.6a3.1,3.1,0,0,0,3.1-3.1V31.3A3.1,3.1,0,0,0,140.6,28.2ZM27.7,6.7a3.9,3.9,0,0,1,3.8,3.1H23.8A3.9,3.9,0,0,1,27.7,6.7ZM6.1,169V15.9H17.6V38.4a10,10,0,1,0,20,.1v-14a3.2,3.2,0,0,0-3-3.2,3.1,3.1,0,0,0-3.1,3.1v14a4,4,0,0,1-3.6,4,3.9,3.9,0,0,1-4.1-3.9V15.9h88.6V169Zm9.4,12.7v-6.5H115.7a3.1,3.1,0,0,0,3.1-3.1V25.3h6.1V181.6Zm9.4,12.2v-6.1h103a3.1,3.1,0,0,0,3.1-3.1V34.3h6.5V193.9Z" fill="#385f7e"/><path d="M80.7,69H38a3.2,3.2,0,0,0-3.2,3,3.1,3.1,0,0,0,3.1,3.1H80.6a3.2,3.2,0,0,0,3.2-3A3.1,3.1,0,0,0,80.7,69Z" fill="#338c5f"/><path d="M80.7,81.6H38a3.2,3.2,0,0,0-3.2,3,3.1,3.1,0,0,0,3.1,3.1H80.6a3.2,3.2,0,0,0,3.2-3A3.1,3.1,0,0,0,80.7,81.6Z" fill="#338c5f"/><path d="M68.5,93.9H50.3a3.2,3.2,0,0,0-3.2,3,3.1,3.1,0,0,0,3.1,3.1H68.4a3.2,3.2,0,0,0,3.2-3A3.1,3.1,0,0,0,68.5,93.9Z" fill="#338c5f"/>
    </symbol>
    <symbol id="lock" viewBox="0 0 155.5 200">
        <path d="M77.7,111.4a18.2,18.2,0,0,0-18.4,18.4,19.2,19.2,0,0,0,7.4,14.7v14.7a11,11,0,0,0,22.1,0V144.6a19.2,19.2,0,0,0,7.4-14.7A18.2,18.2,0,0,0,77.7,111.4Zm3.7,28.7v19.1a3.7,3.7,0,0,1-3.5,3.7,3.5,3.5,0,0,1-3.8-3.7V140.1a11.1,11.1,0,0,1-7.4-10.3,11,11,0,0,1,22.1,0A10.4,10.4,0,0,1,81.4,140.1Z" fill="#338c5f"/><path d="M133.4,81.4V55.6C133.4,25.2,108.1,0,77.7,0S22.1,25.2,22.1,55.6V81.4A21.8,21.8,0,0,0,0,103.6v74.1A22.2,22.2,0,0,0,22.2,200h111a22.2,22.2,0,0,0,22.2-22.2V103.6A22.2,22.2,0,0,0,133.4,81.4ZM29.5,55.9c0-25.9,20.2-47.5,46-48.6A48.1,48.1,0,0,1,126,55.4V81.4h-7.4V55.4c0-22.2-18.5-40.8-40.7-40.8S37.2,33.2,37.2,55.4V81.4H29.5Zm81.8-.1V81.4H44.6V55.4A33.2,33.2,0,0,1,77.9,22.1C96.4,22,111.3,37.3,111.3,55.8Zm22,136.8H22.2A14.9,14.9,0,0,1,7.4,177.8V103.6A14.9,14.9,0,0,1,22.2,88.7H133.3a14.9,14.9,0,0,1,14.8,14.8v74.2A14.9,14.9,0,0,1,133.3,192.6Z" fill="#385f7e"/>
    </symbol>
    <symbol id="pay" viewBox="0 0 139.8 200">
        <path d="M83.3,0H16.7A16.7,16.7,0,0,0,0,16.7V136.5a16.7,16.7,0,0,0,16.7,16.7H76.6v-6.6H16.6a10,10,0,0,1-10-10V16.6a10,10,0,0,1,10-10H83.4a10,10,0,0,1,10,10v96.6H100V16.7A16.7,16.7,0,0,0,83.3,0Z" fill="#338c5f"/><path d="M131.8,88.8,99.3,47.9l-5.2,4.2L126.7,93a30.2,30.2,0,0,1,6.5,18.8v81.7H84.4a31.2,31.2,0,0,1-31.2-31.2V150H46.5v12.1A37.9,37.9,0,0,0,84.4,200h52.1a3.3,3.3,0,0,0,3.3-3.3v-85A36.9,36.9,0,0,0,131.8,88.8Z" fill="#385f7e"/><path d="M56.4,78.6a8.7,8.7,0,0,1,6.1,2.7l44.6,47.4,4.8-4.6L67.4,76.8A15.3,15.3,0,0,0,56.6,72a15.1,15.1,0,0,0-11,4.2l-.3.3a15.3,15.3,0,0,0-.9,20.8L73,131.1v10.3a44.4,44.4,0,0,0,28.7,41.4l2.3-6.2a37.8,37.8,0,0,1-24.4-35.2V129.8a3.3,3.3,0,0,0-.8-2.1L49.5,93a8.8,8.8,0,0,1,.7-12A8.9,8.9,0,0,1,56.4,78.6Z" fill="#385f7e"/><rect x="73" y="6.6" width="6.6" height="83.2" fill="#385f7e"/><rect x="56.6" y="109.8" width="6.6" height="39.84" fill="#385f7e"/><rect x="56.6" y="3.1" width="6.6" height="73.44" fill="#385f7e"/><rect x="16.4" y="16.4" width="6.6" height="43.36" fill="#385f7e"/><rect x="33.2" y="16.4" width="6.6" height="26.56" fill="#385f7e"/><path d="M40,109.8H20.1a3.3,3.3,0,0,0-3.3,3.3V133a3.3,3.3,0,0,0,3.3,3.3H40a3.3,3.3,0,0,0,3.3-3.3V113.1A3.3,3.3,0,0,0,40,109.8Zm-3.3,19.9H23.4V116.4H36.7Z" fill="#385f7e"/>
    </symbol>
    <symbol id="speed" viewBox="0 0 244.9 200">
        <path d="M161.2,78,141.6,89.9c-6.9,4.1-14.3,7.8-21.2,11-2,.8-4.5,2-6.9,3.3a21.1,21.1,0,0,0-11,23.3,20.3,20.3,0,0,0,15.1,15.1,19.9,19.9,0,0,0,4.9.4,20.9,20.9,0,0,0,18.4-11.4c.8-2,2-4.5,3.3-6.9,3.7-6.9,6.9-14.3,11-21.2l11.8-19.6c.8-1.6.4-3.3-.8-4.9A3.8,3.8,0,0,0,161.2,78ZM148.2,98.8a189.1,189.1,0,0,0-11.4,22,53.2,53.2,0,0,1-3.3,6.9c-2.4,5.3-8.2,7.8-13.9,6.5a11.3,11.3,0,0,1-9-9c-1.2-5.7,1.2-11.4,6.5-13.9,2-1.2,4.5-2,6.9-3.3,7.3-3.7,15.1-7.3,22-11.4l5.3-3.3Z" fill="#338c5f"/><path d="M236.2,77.1a4.4,4.4,0,0,0-.2-.8l-.4-.7a123.2,123.2,0,0,0-26-39l-.5-.7-.7-.5A121.9,121.9,0,0,0,77.1,8.7l-.8.2-.7.4a123.2,123.2,0,0,0-39,26l-.7.5-.5.7A122,122,0,0,0,0,122.4c0,27.8,9,54.3,26.5,75.9a3.7,3.7,0,0,0,3.3,1.6H215.1a3.7,3.7,0,0,0,3.3-1.6c17.6-21.6,26.5-48.2,26.5-75.9A121.3,121.3,0,0,0,236.2,77.1Zm-23,114.7H32.2a112.6,112.6,0,0,1-13.7-22.7l11.2-4.6a4,4,0,1,0-3.3-7.3l-11,4.5a112.6,112.6,0,0,1-6.8-35H37.2a4.1,4.1,0,0,0,4.1-3.9,3.9,3.9,0,0,0-4.1-4.2H8.8a112.7,112.7,0,0,1,7.5-36.5L27.4,87a2.4,2.4,0,0,0,1.6.4,3.9,3.9,0,0,0,3.7-2.4,4,4,0,0,0-2-5.3L19.4,74.8a114.6,114.6,0,0,1,20-29.5l8.4,8.4a3.9,3.9,0,0,0,5.7,0,3.9,3.9,0,0,0,0-5.7L45,39.6A114.6,114.6,0,0,1,76.1,18.9l4.5,11.2a3.6,3.6,0,0,0,3.7,2.4,3.1,3.1,0,0,0,1.6-.4,4,4,0,0,0,2-5.3l-4.4-11A112.7,112.7,0,0,1,118.5,9V37.4a4.1,4.1,0,0,0,3.9,4.1,3.9,3.9,0,0,0,4.2-4.1V9a112.7,112.7,0,0,1,36.5,7.5l-4.8,11.2a4,4,0,0,0,2,5.3,2.4,2.4,0,0,0,1.6.4,4.1,4.1,0,0,0,3.7-2.4l4.9-11.3a114.6,114.6,0,0,1,29.5,20l-8.4,8.4a4,4,0,0,0,0,5.7,3.7,3.7,0,0,0,2.8,1.2,4.4,4.4,0,0,0,2.8-1.2l8.4-8.4a114.6,114.6,0,0,1,20.7,31.1l-11.2,4.5a4,4,0,0,0-2,5.3,3.6,3.6,0,0,0,3.7,2.4c.4,0,.8-.4,1.6-.4l11-4.4a112.7,112.7,0,0,1,6.8,34.9H207.9a4.1,4.1,0,0,0-4.1,3.9,3.9,3.9,0,0,0,4.1,4.2h28.3a114.1,114.1,0,0,1-7.3,36.6l-11.3-4.9a4,4,0,1,0-3.3,7.3l11.4,4.9A115.3,115.3,0,0,1,213.1,191.9Z" fill="#385f7e"/>
    </symbol>
</svg>
