<svg xmlns="http://www.w3.org/2000/svg" viewBox="0 0 193.6 200"><title>edit</title><path d="M118.4,73.3H35A3.3,3.3,0,0,0,35,80h83.3a3.3,3.3,0,0,0,0-6.7Z" fill="#385f7e"/><path d="M35,53.3H68.4a3.3,3.3,0,0,0,0-6.7H35a3.3,3.3,0,0,0,0,6.7Z" fill="#385f7e"/><path d="M118.4,100H35a3.3,3.3,0,0,0,0,6.7h83.3a3.3,3.3,0,0,0,0-6.7Z" fill="#385f7e"/><path d="M91.7,126.7H35a3.3,3.3,0,1,0,0,6.7H91.7a3.3,3.3,0,1,0,0-6.7Z" fill="#385f7e"/><path d="M81.7,160a3.3,3.3,0,0,0,0-6.7H35a3.3,3.3,0,0,0,0,6.7Z" fill="#385f7e"/><path d="M6.7,6.7h96.7V53.3H150v60h6.7V48.6L108,0H0V200H96.7v-6.7H6.7ZM110,11.4l35.3,35.3H110Z" fill="#385f7e"/><path d="M190.7,123.5l-9.5-9.5a10.2,10.2,0,0,0-14.1,0l-51.3,51.3-7.1,25.9-1.7,1.7a3.3,3.3,0,0,0,0,4.7h0a3.3,3.3,0,0,0,4.7,0l1.7-1.7,25.9-7.1,51.3-51.3a9.9,9.9,0,0,0,0-14.1ZM123.5,167l34.1-34.1L171.8,147l-34.1,34.1Zm-3,6.4,10.7,10.7-14.8,4ZM186,132.8l-9.5,9.5-14.1-14.1,9.5-9.5a3.4,3.4,0,0,1,4.6,0l9.5,9.5a3.3,3.3,0,0,1,0,4.6Z" fill="#338c5f"/></svg>