<svg xmlns="http://www.w3.org/2000/svg" viewBox="0 0 143.7 200"><title>files</title><path d="M140.6,28.2l-9.3.4h.2V21.9a3.1,3.1,0,0,0-3.1-3.1h-9.5V12.5a3.1,3.1,0,0,0-3.1-3.1H37.8a10.1,10.1,0,0,0-20.2,0H3.1A3.1,3.1,0,0,0,0,12.5V172a3.1,3.1,0,0,0,3.1,3.1H9.4v9.5a3.1,3.1,0,0,0,3.1,3.1h6.3v9.1a3.1,3.1,0,0,0,3.1,3.1H140.6a3.1,3.1,0,0,0,3.1-3.1V31.3A3.1,3.1,0,0,0,140.6,28.2ZM27.7,6.7a3.9,3.9,0,0,1,3.8,3.1H23.8A3.9,3.9,0,0,1,27.7,6.7ZM6.1,169V15.9H17.6V38.4a10,10,0,1,0,20,.1v-14a3.2,3.2,0,0,0-3-3.2,3.1,3.1,0,0,0-3.1,3.1v14a4,4,0,0,1-3.6,4,3.9,3.9,0,0,1-4.1-3.9V15.9h88.6V169Zm9.4,12.7v-6.5H115.7a3.1,3.1,0,0,0,3.1-3.1V25.3h6.1V181.6Zm9.4,12.2v-6.1h103a3.1,3.1,0,0,0,3.1-3.1V34.3h6.5V193.9Z" fill="#385f7e"/><path d="M80.7,69H38a3.2,3.2,0,0,0-3.2,3,3.1,3.1,0,0,0,3.1,3.1H80.6a3.2,3.2,0,0,0,3.2-3A3.1,3.1,0,0,0,80.7,69Z" fill="#338c5f"/><path d="M80.7,81.6H38a3.2,3.2,0,0,0-3.2,3,3.1,3.1,0,0,0,3.1,3.1H80.6a3.2,3.2,0,0,0,3.2-3A3.1,3.1,0,0,0,80.7,81.6Z" fill="#338c5f"/><path d="M68.5,93.9H50.3a3.2,3.2,0,0,0-3.2,3,3.1,3.1,0,0,0,3.1,3.1H68.4a3.2,3.2,0,0,0,3.2-3A3.1,3.1,0,0,0,68.5,93.9Z" fill="#338c5f"/></svg>