<svg xmlns="http://www.w3.org/2000/svg" viewBox="0 0 155.5 200"><title>lock</title><path d="M77.7,111.4a18.2,18.2,0,0,0-18.4,18.4,19.2,19.2,0,0,0,7.4,14.7v14.7a11,11,0,0,0,22.1,0V144.6a19.2,19.2,0,0,0,7.4-14.7A18.2,18.2,0,0,0,77.7,111.4Zm3.7,28.7v19.1a3.7,3.7,0,0,1-3.5,3.7,3.5,3.5,0,0,1-3.8-3.7V140.1a11.1,11.1,0,0,1-7.4-10.3,11,11,0,0,1,22.1,0A10.4,10.4,0,0,1,81.4,140.1Z" fill="#338c5f"/><path d="M133.4,81.4V55.6C133.4,25.2,108.1,0,77.7,0S22.1,25.2,22.1,55.6V81.4A21.8,21.8,0,0,0,0,103.6v74.1A22.2,22.2,0,0,0,22.2,200h111a22.2,22.2,0,0,0,22.2-22.2V103.6A22.2,22.2,0,0,0,133.4,81.4ZM29.5,55.9c0-25.9,20.2-47.5,46-48.6A48.1,48.1,0,0,1,126,55.4V81.4h-7.4V55.4c0-22.2-18.5-40.8-40.7-40.8S37.2,33.2,37.2,55.4V81.4H29.5Zm81.8-.1V81.4H44.6V55.4A33.2,33.2,0,0,1,77.9,22.1C96.4,22,111.3,37.3,111.3,55.8Zm22,136.8H22.2A14.9,14.9,0,0,1,7.4,177.8V103.6A14.9,14.9,0,0,1,22.2,88.7H133.3a14.9,14.9,0,0,1,14.8,14.8v74.2A14.9,14.9,0,0,1,133.3,192.6Z" fill="#385f7e"/></svg>