<svg xmlns="http://www.w3.org/2000/svg" viewBox="0 0 139.8 200"><title>pay</title><path d="M83.3,0H16.7A16.7,16.7,0,0,0,0,16.7V136.5a16.7,16.7,0,0,0,16.7,16.7H76.6v-6.6H16.6a10,10,0,0,1-10-10V16.6a10,10,0,0,1,10-10H83.4a10,10,0,0,1,10,10v96.6H100V16.7A16.7,16.7,0,0,0,83.3,0Z" fill="#338c5f"/><path d="M131.8,88.8,99.3,47.9l-5.2,4.2L126.7,93a30.2,30.2,0,0,1,6.5,18.8v81.7H84.4a31.2,31.2,0,0,1-31.2-31.2V150H46.5v12.1A37.9,37.9,0,0,0,84.4,200h52.1a3.3,3.3,0,0,0,3.3-3.3v-85A36.9,36.9,0,0,0,131.8,88.8Z" fill="#385f7e"/><path d="M56.4,78.6a8.7,8.7,0,0,1,6.1,2.7l44.6,47.4,4.8-4.6L67.4,76.8A15.3,15.3,0,0,0,56.6,72a15.1,15.1,0,0,0-11,4.2l-.3.3a15.3,15.3,0,0,0-.9,20.8L73,131.1v10.3a44.4,44.4,0,0,0,28.7,41.4l2.3-6.2a37.8,37.8,0,0,1-24.4-35.2V129.8a3.3,3.3,0,0,0-.8-2.1L49.5,93a8.8,8.8,0,0,1,.7-12A8.9,8.9,0,0,1,56.4,78.6Z" fill="#385f7e"/><rect x="73" y="6.6" width="6.6" height="83.2" fill="#385f7e"/><rect x="56.6" y="109.8" width="6.6" height="39.84" fill="#385f7e"/><rect x="56.6" y="3.1" width="6.6" height="73.44" fill="#385f7e"/><rect x="16.4" y="16.4" width="6.6" height="43.36" fill="#385f7e"/><rect x="33.2" y="16.4" width="6.6" height="26.56" fill="#385f7e"/><path d="M40,109.8H20.1a3.3,3.3,0,0,0-3.3,3.3V133a3.3,3.3,0,0,0,3.3,3.3H40a3.3,3.3,0,0,0,3.3-3.3V113.1A3.3,3.3,0,0,0,40,109.8Zm-3.3,19.9H23.4V116.4H36.7Z" fill="#385f7e"/></svg>