<svg xmlns="http://www.w3.org/2000/svg" viewBox="0 0 244.9 200"><title>speed</title><path d="M161.2,78,141.6,89.9c-6.9,4.1-14.3,7.8-21.2,11-2,.8-4.5,2-6.9,3.3a21.1,21.1,0,0,0-11,23.3,20.3,20.3,0,0,0,15.1,15.1,19.9,19.9,0,0,0,4.9.4,20.9,20.9,0,0,0,18.4-11.4c.8-2,2-4.5,3.3-6.9,3.7-6.9,6.9-14.3,11-21.2l11.8-19.6c.8-1.6.4-3.3-.8-4.9A3.8,3.8,0,0,0,161.2,78ZM148.2,98.8a189.1,189.1,0,0,0-11.4,22,53.2,53.2,0,0,1-3.3,6.9c-2.4,5.3-8.2,7.8-13.9,6.5a11.3,11.3,0,0,1-9-9c-1.2-5.7,1.2-11.4,6.5-13.9,2-1.2,4.5-2,6.9-3.3,7.3-3.7,15.1-7.3,22-11.4l5.3-3.3Z" fill="#338c5f"/><path d="M236.2,77.1a4.4,4.4,0,0,0-.2-.8l-.4-.7a123.2,123.2,0,0,0-26-39l-.5-.7-.7-.5A121.9,121.9,0,0,0,77.1,8.7l-.8.2-.7.4a123.2,123.2,0,0,0-39,26l-.7.5-.5.7A122,122,0,0,0,0,122.4c0,27.8,9,54.3,26.5,75.9a3.7,3.7,0,0,0,3.3,1.6H215.1a3.7,3.7,0,0,0,3.3-1.6c17.6-21.6,26.5-48.2,26.5-75.9A121.3,121.3,0,0,0,236.2,77.1Zm-23,114.7H32.2a112.6,112.6,0,0,1-13.7-22.7l11.2-4.6a4,4,0,1,0-3.3-7.3l-11,4.5a112.6,112.6,0,0,1-6.8-35H37.2a4.1,4.1,0,0,0,4.1-3.9,3.9,3.9,0,0,0-4.1-4.2H8.8a112.7,112.7,0,0,1,7.5-36.5L27.4,87a2.4,2.4,0,0,0,1.6.4,3.9,3.9,0,0,0,3.7-2.4,4,4,0,0,0-2-5.3L19.4,74.8a114.6,114.6,0,0,1,20-29.5l8.4,8.4a3.9,3.9,0,0,0,5.7,0,3.9,3.9,0,0,0,0-5.7L45,39.6A114.6,114.6,0,0,1,76.1,18.9l4.5,11.2a3.6,3.6,0,0,0,3.7,2.4,3.1,3.1,0,0,0,1.6-.4,4,4,0,0,0,2-5.3l-4.4-11A112.7,112.7,0,0,1,118.5,9V37.4a4.1,4.1,0,0,0,3.9,4.1,3.9,3.9,0,0,0,4.2-4.1V9a112.7,112.7,0,0,1,36.5,7.5l-4.8,11.2a4,4,0,0,0,2,5.3,2.4,2.4,0,0,0,1.6.4,4.1,4.1,0,0,0,3.7-2.4l4.9-11.3a114.6,114.6,0,0,1,29.5,20l-8.4,8.4a4,4,0,0,0,0,5.7,3.7,3.7,0,0,0,2.8,1.2,4.4,4.4,0,0,0,2.8-1.2l8.4-8.4a114.6,114.6,0,0,1,20.7,31.1l-11.2,4.5a4,4,0,0,0-2,5.3,3.6,3.6,0,0,0,3.7,2.4c.4,0,.8-.4,1.6-.4l11-4.4a112.7,112.7,0,0,1,6.8,34.9H207.9a4.1,4.1,0,0,0-4.1,3.9,3.9,3.9,0,0,0,4.1,4.2h28.3a114.1,114.1,0,0,1-7.3,36.6l-11.3-4.9a4,4,0,1,0-3.3,7.3l11.4,4.9A115.3,115.3,0,0,1,213.1,191.9Z" fill="#385f7e"/></svg>