<svg xmlns="http://www.w3.org/2000/svg" viewBox="0 0 200 200"><title>analysis</title><path d="M195.6,174.2,143.4,122A78.3,78.3,0,1,0,122,143.4l52.2,52.2a15.1,15.1,0,1,0,21.4-21.4ZM78.4,150A71.6,71.6,0,1,1,150,78.4,71.7,71.7,0,0,1,78.4,150Zm112.4,40.8a8.5,8.5,0,0,1-11.9,0L128.1,140,140,128.1l50.8,50.8A8.4,8.4,0,0,1,190.9,190.9Z" fill="#385f7e"/><path d="M80.2,13.5,80,20.2a58.2,58.2,0,0,1,44.1,22l5.2-4.1A64.8,64.8,0,0,0,80.2,13.5Z" fill="#338c5f"/><path d="M134.2,45.1l-5.7,3.4a58.3,58.3,0,0,1,3.3,6.4l6.1-2.7A65.5,65.5,0,0,0,134.2,45.1Z" fill="#338c5f"/></svg>