<svg xmlns="http://www.w3.org/2000/svg" viewBox="0 0 160 200"><title>audit</title><path d="M159.8,173.3A23.3,23.3,0,0,0,140,153.6V123.6a23.3,23.3,0,1,0-46.7-.3V173a20.2,20.2,0,0,1-18.9,20.3,20,20,0,0,1-21.1-20V120A50,50,0,0,0,100,70V20A13.3,13.3,0,0,0,86.7,6.6V2.2A2.2,2.2,0,0,0,84.5,0H71.4a7.6,7.6,0,0,0-5.3,2.6C59.7,10.9,65.5,20,73.3,20H84.5a2.2,2.2,0,0,0,2.2-2.2V13.3A6.7,6.7,0,0,1,93.3,20V69.5c0,23.6-18.6,43.2-42.2,43.8A43.3,43.3,0,0,1,6.7,70V20a6.7,6.7,0,0,1,6.7-6.7v4.5A2.2,2.2,0,0,0,15.5,20H28.7A7.6,7.6,0,0,0,34,17.4C40.3,9.1,34.6,0,26.7,0H15.5a2.2,2.2,0,0,0-2.2,2.2V6.7A13.3,13.3,0,0,0,0,20V70a50,50,0,0,0,46.7,50v53a26.7,26.7,0,1,0,53.3.4V123.6c0-8.6,7-16.4,15.6-16.9a16.7,16.7,0,0,1,17.7,16.6v30.3a23.3,23.3,0,1,0,26.4,19.8Z" fill="#385f7e"/><path d="M80,13.3H73.4A3.4,3.4,0,0,1,70,10.5a3.3,3.3,0,0,1,3.3-3.8H80Z" fill="#338c5f"/><path d="M20,6.7h6.6A3.4,3.4,0,0,1,30,9.5a3.3,3.3,0,0,1-3.3,3.8H20Z" fill="#338c5f"/><circle cx="136.6" cy="176.6" r="3.3" fill="#338c5f"/><path d="M153,180a16.7,16.7,0,1,1-19.7-19.7v6.9a10,10,0,1,0,6.7,0v-6.9A16.7,16.7,0,0,1,153,180Z" fill="#f2f7f2"/></svg>