<svg xmlns="http://www.w3.org/2000/svg" viewBox="0 0 200 200"><title>linkbuild</title><path d="M48.9,42.9l-25.1-25a4.2,4.2,0,1,0-5.9,5.9L43,48.8a4.2,4.2,0,1,0,5.9-5.9Z" fill="#338c5f"/><path d="M37.3,58.2H4.6a4.2,4.2,0,0,0-4.2,4,4.1,4.1,0,0,0,4.1,4.2H37.1a4.2,4.2,0,0,0,4.2-4A4.1,4.1,0,0,0,37.3,58.2Z" fill="#338c5f"/><path d="M58.6,4.6V37.1a4.2,4.2,0,0,0,4,4.2,4.1,4.1,0,0,0,4.2-4.1V4.4A4.1,4.1,0,0,0,62.7.3,4.2,4.2,0,0,0,58.6,4.6Z" fill="#338c5f"/><path d="M182.2,167.9l-25.1-25a4.2,4.2,0,1,0-5.9,5.9l25.1,25a4.2,4.2,0,1,0,5.9-5.9Z" fill="#338c5f"/><path d="M195.6,125H163a4.2,4.2,0,0,0-4.2,4,4.1,4.1,0,0,0,4.1,4.2h32.7a4.2,4.2,0,0,0,4.2-4A4.1,4.1,0,0,0,195.6,125Z" fill="#338c5f"/><path d="M133.2,154.6v32.5a4.2,4.2,0,0,0,4,4.2,4.1,4.1,0,0,0,4.2-4.1V154.4a4.1,4.1,0,0,0-4.2-4.1A4.2,4.2,0,0,0,133.2,154.6Z" fill="#338c5f"/><path d="M189,11a37.5,37.5,0,0,0-53,0L99.7,47.3a4.2,4.2,0,0,0,5.9,5.9l36.4-36.4a29.2,29.2,0,1,1,41.2,41.2l-53,53a29.2,29.2,0,0,1-41.2,0A4.2,4.2,0,0,0,83,117a37.5,37.5,0,0,0,53,0l53-53A37.5,37.5,0,0,0,189,11Z" fill="#385f7e"/><path d="M117,83a37.5,37.5,0,0,0-53,0L11,136a37.5,37.5,0,0,0,53,53l36.4-36.4a4.2,4.2,0,0,0-5.9-5.9L58.1,183.2a29.2,29.2,0,0,1-41.2-41.2l53-53a29.2,29.2,0,0,1,41.2,0A4.2,4.2,0,1,0,117,83Z" fill="#385f7e"/></svg>