<svg xmlns="http://www.w3.org/2000/svg" viewBox="0 0 233.5 200"><title>local</title><path d="M219.3,83.3H173.1a3.8,3.8,0,1,0,0,7.5h38.6L224,192.5H9.6L24.1,90.8H62.8a3.8,3.8,0,1,0,0-7.5H16.6L0,200H233.5Z" fill="#385f7e"/><path d="M113.1,142.9l-1.9,1-2.7,1.7a3.5,3.5,0,0,0-.9,5.3,4.4,4.4,0,0,0,3.4,1.5,4.6,4.6,0,0,0,2.5-.7l2.3-1.4,4.3-2.2a3.6,3.6,0,0,0,2-4.8h.1c7.7-7.2,33.5-34.2,44.3-79.3a68.8,68.8,0,0,0,1.5-26C164.2,13.1,146.9,0,117.8,0S71.3,13.1,67.6,37.8a68.9,68.9,0,0,0,1.5,26C79.7,108.5,105.2,135.4,113.1,142.9ZM76.1,38.8c3.1-21,16.8-31.3,41.7-31.3s38.6,10.2,41.7,31.3a62.3,62.3,0,0,1-1.3,23.5c-9.6,40.5-32.6,66.2-40.4,74-7.8-7.8-30.7-33.5-40.4-74A62.3,62.3,0,0,1,76.1,38.8Z" fill="#385f7e"/><path d="M117.8,71.2c17.2,0,31.2-12.4,31.2-27.7s-14-27.7-31.2-27.7S86.6,28.3,86.6,43.6,100.6,71.2,117.8,71.2Zm0-47.8c12.5,0,22.7,9,22.7,20.1s-10.2,20.1-22.7,20.1-22.7-9-22.7-20.1S105.3,23.5,117.8,23.5Z" fill="#385f7e"/><path d="M133.4,136.1a3.8,3.8,0,0,0-3.3,4.5,4.2,4.2,0,0,0,4.1,3h.9c2.5-.5,5.2-.9,8-1.2a3.9,3.9,0,0,0,3.7-4.2,4.1,4.1,0,0,0-4.7-3.3C139,135.2,136.1,135.6,133.4,136.1Z" fill="#338c5f"/><path d="M155.3,136.2a4,4,0,0,0,4.2,3.6h.2l8.5-.3a4,4,0,0,0,4-3.9c-.1-2.1-2.3-3.7-4.4-3.6l-8.5.3A4,4,0,0,0,155.3,136.2Z" fill="#338c5f"/><path d="M95.2,155c-2.2,1.5-4.4,2.9-6.7,4.2a3.5,3.5,0,0,0-1.2,5.2,4.4,4.4,0,0,0,3.6,1.7,4.6,4.6,0,0,0,2.3-.6c2.4-1.4,4.9-2.9,7.2-4.5a3.5,3.5,0,0,0,.8-5.3A4.6,4.6,0,0,0,95.2,155Z" fill="#338c5f"/><path d="M189.8,130.2a16.3,16.3,0,0,1-5.7,2,3.8,3.8,0,0,0-3.3,4.4,4.2,4.2,0,0,0,4.2,3h.9a25.1,25.1,0,0,0,8.9-3.2l.6-.4a3.5,3.5,0,0,0,.8-5.3,4.6,4.6,0,0,0-5.9-.7Z" fill="#338c5f"/><path d="M37.6,159.6a3.7,3.7,0,0,0-3-4.6,4.3,4.3,0,0,0-5.2,2.6,22.6,22.6,0,0,0-1,5.3c0,.4,0,.9,0,1.3a21.4,21.4,0,0,0,.1,2.2,4.1,4.1,0,0,0,4.2,3.4h.4a3.9,3.9,0,0,0,3.8-4.1,13.4,13.4,0,0,1-.1-1.5c0-.3,0-.6,0-.9A15.7,15.7,0,0,1,37.6,159.6Z" fill="#338c5f"/><path d="M189.7,100.9a28,28,0,0,0-10.1.7,3.7,3.7,0,0,0-2.9,4.6,4.2,4.2,0,0,0,4.1,2.7h1.2a18.6,18.6,0,0,1,6.7-.5,4.2,4.2,0,0,0,4.8-3.2A3.9,3.9,0,0,0,189.7,100.9Z" fill="#338c5f"/><path d="M198.1,119.6a3.7,3.7,0,0,0,2.8,4.7l1.3.2a4.2,4.2,0,0,0,4.1-2.7,14.4,14.4,0,0,0,.8-3.6c0-.3,0-.6,0-.9a13.5,13.5,0,0,0-1.1-5.2,4.4,4.4,0,0,0-5.5-2.2,3.7,3.7,0,0,0-2.5,4.8,6.8,6.8,0,0,1,.6,2.6v.4A7.6,7.6,0,0,1,198.1,119.6Z" fill="#338c5f"/><path d="M74.2,166.2l-7.5,2.9a3.6,3.6,0,0,0-2.4,4.9,4.3,4.3,0,0,0,4,2.4l1.5-.3,8.1-3.1a3.6,3.6,0,0,0,2-5A4.5,4.5,0,0,0,74.2,166.2Z" fill="#338c5f"/><path d="M43.3,150.6a4.7,4.7,0,0,0,2-.5,11.3,11.3,0,0,1,3.9-1.1h1.7a4.1,4.1,0,0,0,4.8-3.2,3.9,3.9,0,0,0-3.6-4.2,17.6,17.6,0,0,0-3.8,0,20.6,20.6,0,0,0-7,2,3.6,3.6,0,0,0-1.7,5.1A4.4,4.4,0,0,0,43.3,150.6Z" fill="#338c5f"/><path d="M42.4,180.1l2.8.5,3.3.2,4-.2a3.9,3.9,0,0,0,3.7-4.2,4.2,4.2,0,0,0-4.7-3.3,23.4,23.4,0,0,1-5.2.1l-1.7-.3a4.3,4.3,0,0,0-5.2,2.7A3.8,3.8,0,0,0,42.4,180.1Z" fill="#338c5f"/></svg>