<svg xmlns="http://www.w3.org/2000/svg" viewBox="0 0 171.5 200"><title>outreach</title><path d="M57.3,38.3a16.6,16.6,0,0,0-2.9,4c-.5,1-9.3,22.8-9.3,22.8a132.8,132.8,0,0,1-29.1,43.8l-6.2,6.2c-12.8,12.8-13,33.6-.4,46.2a32.3,32.3,0,0,0,23.1,9.6h0a32.4,32.4,0,0,0,13.7-3l11.4,11.4a3.1,3.1,0,0,0,4.2.1l16.1,16.1a15.3,15.3,0,0,0,22.4-.8,15.5,15.5,0,0,0-.9-21.1L83.5,157.8l2.1-2.1.6-.8a3.1,3.1,0,0,0-.6-3.6l-9-9a132.9,132.9,0,0,1,29.1-16.4s21.7-8.7,23.4-9.7a16.9,16.9,0,0,0,3.3-2.6c11.8-11,3.8-36.8-17.3-57.9S68.7,27,57.3,38.3ZM51.7,164.7a33,33,0,0,0,3.7-3.2l6.5-6.5,3-2.9,7.8,7.8L59.8,172.8Zm30.6,26.5L66.2,175.1l6.1-6.1,16.1,16.1a9.1,9.1,0,0,1,2.7,6.4h0a2.3,2.3,0,0,1-2.3,2.3A9.1,9.1,0,0,1,82.3,191.2Zm12.9-12.9A9.1,9.1,0,0,1,97,188.6a15.2,15.2,0,0,0-4.2-7.9L76.7,164.6l2.4-2.4ZM79.1,153.5l-2,2-7.6-7.6,2.2-1.9ZM103.3,120a138.9,138.9,0,0,0-45.9,30.5L51,157a26.3,26.3,0,0,1-18.6,7.7h0a26.1,26.1,0,0,1-18.7-7.8,26.6,26.6,0,0,1,.4-37.5l6.2-6.2A139.7,139.7,0,0,0,50.8,67.5l2.4-6c2.7,10.9,10.1,23.4,21.4,34.7s21,17.1,31.6,20.5l3.2.9ZM79,72.3v.5a30,30,0,0,0,7.4,11.5,29.1,29.1,0,0,0,11.9,7.6l-9.1,9.1A94.5,94.5,0,0,1,70,81.4Zm25.6,13.4h0c-1.6,1.5-7.8,0-13.7-5.9a24.1,24.1,0,0,1-5.9-9c-.7-2.1-.7-3.9.1-4.7a2.6,2.6,0,0,1,1.9-.6,9.3,9.3,0,0,1,2.8.5,24.1,24.1,0,0,1,9,5.9C104.7,77.9,106.2,84.2,104.6,85.7Zm23.4,23.4a8,8,0,0,1-2.3,1.7,13.2,13.2,0,0,1-2.4,1c-4,1.2-9.3.9-15.3-1.1a61.4,61.4,0,0,1-13.4-6.4L109,90.1h0c4.7-4.7,2.2-14.4-5.8-22.4a30,30,0,0,0-11.5-7.4c-4.6-1.5-8.5-.9-11,1.6h0L66.4,76.2A61.4,61.4,0,0,1,60,62.8c-2-6-2.3-11.3-1-15.3a11.2,11.2,0,0,1,2.7-4.7c2.4-2.4,5.8-3.5,9.9-3.5,10.8,0,26.2,7.8,39.2,20.8C128.8,78.1,136.7,100.6,128.1,109.2Z" fill="#385f7e"/><path d="M168.4,72.9H140.1a3.2,3.2,0,0,0-3.2,2.7,3.1,3.1,0,0,0,3.1,3.5h28.3a3.2,3.2,0,0,0,3.2-2.7A3.1,3.1,0,0,0,168.4,72.9Z" fill="#338c5f"/><path d="M127.1,60.1a3.1,3.1,0,0,0,4.1,1.5L162.6,47a3.1,3.1,0,1,0-2.6-5.6L128.6,56A3.1,3.1,0,0,0,127.1,60.1Z" fill="#338c5f"/><path d="M116.1,48.4a3.1,3.1,0,0,0,4.4-.4l23.3-27.8a3.1,3.1,0,0,0-4.8-4L115.7,44A3.1,3.1,0,0,0,116.1,48.4Z" fill="#338c5f"/><path d="M102.9,38.3h.8a3.1,3.1,0,0,0,3-2.3l8.6-32.2a3.1,3.1,0,1,0-6-1.6l-8.6,32.2A3.1,3.1,0,0,0,102.9,38.3Z" fill="#338c5f"/></svg>