<svg xmlns="http://www.w3.org/2000/svg" viewBox="0 0 217.8 200"><title>reporting</title><path d="M205.5,23.7H158.2V14.6a4.6,4.6,0,0,0-3.5-4.5,4.5,4.5,0,0,0-5.3,4.5v9.1H101.9A12.2,12.2,0,0,0,89.8,35.9V52.1l-6.4-2.1c-1.7-.6-16.5-5.8-30.2-6.4l-1.8,3.6h.2l5.2,39.9L50.7,97.7,44.5,87.1l5.2-39.9h-.1l-1.8-3.6c-14.2.7-29.8,6.2-30.5,6.5l-.7.4-1.4.8-1,.9-.9,1.2a7.6,7.6,0,0,0-.6,1.4,7.2,7.2,0,0,0-.3.8L.2,110.3A7.6,7.6,0,0,0,6,119.4l1.7.2a7.7,7.7,0,0,0,7.5-6L26.5,63l2.7-.8v52l-6.1,75.4a9.2,9.2,0,0,0,8.4,9.8h.7a9.2,9.2,0,0,0,9.2-8.4L47,122.9a9.2,9.2,0,0,0,7.4,0l5.5,68.1a9.2,9.2,0,0,0,9.2,8.4h.7a9.2,9.2,0,0,0,8.4-9.8l-6.1-75.4V62.4c3.8,1.1,6.4,2,6.4,2h.2l11,3.7v41a12.2,12.2,0,0,0,12.2,12.2h21.9l-19.4,72.9a4.6,4.6,0,0,0,3.2,5.6l1.2.2a4.6,4.6,0,0,0,4.4-3.4l20.1-74.2h16v52.4a4,4,0,0,0,4.1,4.6,4.7,4.7,0,0,0,4.7-4.6V122.4h15.5l20.1,74.2a4.6,4.6,0,0,0,4.4,3.4l1.2-.2a4.6,4.6,0,0,0,3.2-5.6l-19.4-72.9h22.5a12.2,12.2,0,0,0,12.2-12.2V35.9A12.2,12.2,0,0,0,205.5,23.7Z" fill="#385f7e"/><path d="M211.4,109.7a6,6,0,0,1-6.1,5.9H101.7c-3.4,0-6.1-2.7-7.1-6.1v-39l20.3,6.4a7.8,7.8,0,0,0,2.4.4,7.6,7.6,0,0,0,7.2-5.2,7.1,7.1,0,0,0,.2-1.6l45.8-21.2a1.5,1.5,0,0,0-1.3-2.8L124.4,67.3a7.5,7.5,0,0,0-4.7-4.8l-24.1-8V36.6a6.1,6.1,0,0,1,6.1-6.1H204.8a6.1,6.1,0,0,1,6.1,6.1v73.1Z" fill="#f2f7f2"/><path d="M50.3,42.2c10.6,0,19.2-12.3,19.2-23a19.3,19.3,0,1,0-38.5,0C31,29.9,39.7,42.2,50.3,42.2Z" fill="#385f7e"/><path d="M162.5,78.3l3.2-2-3.1-4.9-3.1,2a15.6,15.6,0,0,0-5-3.6l.8-3.6-5.7-1.3-.8,3.6a15.1,15.1,0,0,0-6.1,1l-2-3.2-4.9,3.1,2,3.2a15.3,15.3,0,0,0-3.6,5l-3.6-.8-1.3,5.7,3.6.8a15.3,15.3,0,0,0,1,6.1l-3.2,2,3.1,4.9,3.2-2a14.9,14.9,0,0,0,5,3.6l-.8,3.6,5.7,1.3.8-3.6a15.3,15.3,0,0,0,6.1-1l2,3.2,4.9-3.1-2-3.2a15.4,15.4,0,0,0,3.6-5l3.6.8,1.3-5.7-3.6-.8A15.3,15.3,0,0,0,162.5,78.3Zm-8.8,14.4a10.5,10.5,0,1,1,3.3-14.4A10.5,10.5,0,0,1,153.8,92.7Z" fill="#338c5f"/><path d="M194.1,69.1l-2.8,1a12.3,12.3,0,0,0-3.2-3.7l1.3-2.6-4.2-2.1-1.3,2.7A12.2,12.2,0,0,0,179,64l-1-2.8-4.4,1.5.9,2.8a12.2,12.2,0,0,0-3.7,3.2l-2.7-1.3-2.1,4.2,2.7,1.3a12.2,12.2,0,0,0-.3,4.9l-2.8.9,1.5,4.4,2.8-1a12.1,12.1,0,0,0,3.2,3.7L172,88.5l4.2,2.1,1.3-2.7a12.1,12.1,0,0,0,4.9.3l.9,2.8,4.4-1.5-1-2.8a12.2,12.2,0,0,0,3.7-3.2l2.7,1.3,2.1-4.2-2.6-1.3a12.3,12.3,0,0,0,.3-4.9l2.8-1ZM183.4,84a8.3,8.3,0,1,1,5.2-10.6A8.3,8.3,0,0,1,183.4,84Z" fill="#338c5f"/></svg>