<svg xmlns="http://www.w3.org/2000/svg" style="display: none;">
    <symbol id="analysis" viewBox="0 0 200 200">
        <path d="M195.6,174.2,143.4,122A78.3,78.3,0,1,0,122,143.4l52.2,52.2a15.1,15.1,0,1,0,21.4-21.4ZM78.4,150A71.6,71.6,0,1,1,150,78.4,71.7,71.7,0,0,1,78.4,150Zm112.4,40.8a8.5,8.5,0,0,1-11.9,0L128.1,140,140,128.1l50.8,50.8A8.4,8.4,0,0,1,190.9,190.9Z" fill="#385f7e"/><path d="M80.2,13.5,80,20.2a58.2,58.2,0,0,1,44.1,22l5.2-4.1A64.8,64.8,0,0,0,80.2,13.5Z" fill="#338c5f"/><path d="M134.2,45.1l-5.7,3.4a58.3,58.3,0,0,1,3.3,6.4l6.1-2.7A65.5,65.5,0,0,0,134.2,45.1Z" fill="#338c5f"/>
    </symbol>
    <symbol id="audit" viewBox="0 0 160 200">
        <path d="M159.8,173.3A23.3,23.3,0,0,0,140,153.6V123.6a23.3,23.3,0,1,0-46.7-.3V173a20.2,20.2,0,0,1-18.9,20.3,20,20,0,0,1-21.1-20V120A50,50,0,0,0,100,70V20A13.3,13.3,0,0,0,86.7,6.6V2.2A2.2,2.2,0,0,0,84.5,0H71.4a7.6,7.6,0,0,0-5.3,2.6C59.7,10.9,65.5,20,73.3,20H84.5a2.2,2.2,0,0,0,2.2-2.2V13.3A6.7,6.7,0,0,1,93.3,20V69.5c0,23.6-18.6,43.2-42.2,43.8A43.3,43.3,0,0,1,6.7,70V20a6.7,6.7,0,0,1,6.7-6.7v4.5A2.2,2.2,0,0,0,15.5,20H28.7A7.6,7.6,0,0,0,34,17.4C40.3,9.1,34.6,0,26.7,0H15.5a2.2,2.2,0,0,0-2.2,2.2V6.7A13.3,13.3,0,0,0,0,20V70a50,50,0,0,0,46.7,50v53a26.7,26.7,0,1,0,53.3.4V123.6c0-8.6,7-16.4,15.6-16.9a16.7,16.7,0,0,1,17.7,16.6v30.3a23.3,23.3,0,1,0,26.4,19.8Z" fill="#385f7e"/><path d="M80,13.3H73.4A3.4,3.4,0,0,1,70,10.5a3.3,3.3,0,0,1,3.3-3.8H80Z" fill="#338c5f"/><path d="M20,6.7h6.6A3.4,3.4,0,0,1,30,9.5a3.3,3.3,0,0,1-3.3,3.8H20Z" fill="#338c5f"/><circle cx="136.6" cy="176.6" r="3.3" fill="#338c5f"/><path d="M153,180a16.7,16.7,0,1,1-19.7-19.7v6.9a10,10,0,1,0,6.7,0v-6.9A16.7,16.7,0,0,1,153,180Z" fill="#f2f7f2"/>
    </symbol>
    <symbol id="linkbuild" viewBox="0 0 200 200">
        <path d="M48.9,42.9l-25.1-25a4.2,4.2,0,1,0-5.9,5.9L43,48.8a4.2,4.2,0,1,0,5.9-5.9Z" fill="#338c5f"/><path d="M37.3,58.2H4.6a4.2,4.2,0,0,0-4.2,4,4.1,4.1,0,0,0,4.1,4.2H37.1a4.2,4.2,0,0,0,4.2-4A4.1,4.1,0,0,0,37.3,58.2Z" fill="#338c5f"/><path d="M58.6,4.6V37.1a4.2,4.2,0,0,0,4,4.2,4.1,4.1,0,0,0,4.2-4.1V4.4A4.1,4.1,0,0,0,62.7.3,4.2,4.2,0,0,0,58.6,4.6Z" fill="#338c5f"/><path d="M182.2,167.9l-25.1-25a4.2,4.2,0,1,0-5.9,5.9l25.1,25a4.2,4.2,0,1,0,5.9-5.9Z" fill="#338c5f"/><path d="M195.6,125H163a4.2,4.2,0,0,0-4.2,4,4.1,4.1,0,0,0,4.1,4.2h32.7a4.2,4.2,0,0,0,4.2-4A4.1,4.1,0,0,0,195.6,125Z" fill="#338c5f"/><path d="M133.2,154.6v32.5a4.2,4.2,0,0,0,4,4.2,4.1,4.1,0,0,0,4.2-4.1V154.4a4.1,4.1,0,0,0-4.2-4.1A4.2,4.2,0,0,0,133.2,154.6Z" fill="#338c5f"/><path d="M189,11a37.5,37.5,0,0,0-53,0L99.7,47.3a4.2,4.2,0,0,0,5.9,5.9l36.4-36.4a29.2,29.2,0,1,1,41.2,41.2l-53,53a29.2,29.2,0,0,1-41.2,0A4.2,4.2,0,0,0,83,117a37.5,37.5,0,0,0,53,0l53-53A37.5,37.5,0,0,0,189,11Z" fill="#385f7e"/><path d="M117,83a37.5,37.5,0,0,0-53,0L11,136a37.5,37.5,0,0,0,53,53l36.4-36.4a4.2,4.2,0,0,0-5.9-5.9L58.1,183.2a29.2,29.2,0,0,1-41.2-41.2l53-53a29.2,29.2,0,0,1,41.2,0A4.2,4.2,0,1,0,117,83Z" fill="#385f7e"/>
    </symbol>
    <symbol id="local" viewBox="0 0 233.5 200">
        <path d="M219.3,83.3H173.1a3.8,3.8,0,1,0,0,7.5h38.6L224,192.5H9.6L24.1,90.8H62.8a3.8,3.8,0,1,0,0-7.5H16.6L0,200H233.5Z" fill="#385f7e"/><path d="M113.1,142.9l-1.9,1-2.7,1.7a3.5,3.5,0,0,0-.9,5.3,4.4,4.4,0,0,0,3.4,1.5,4.6,4.6,0,0,0,2.5-.7l2.3-1.4,4.3-2.2a3.6,3.6,0,0,0,2-4.8h.1c7.7-7.2,33.5-34.2,44.3-79.3a68.8,68.8,0,0,0,1.5-26C164.2,13.1,146.9,0,117.8,0S71.3,13.1,67.6,37.8a68.9,68.9,0,0,0,1.5,26C79.7,108.5,105.2,135.4,113.1,142.9ZM76.1,38.8c3.1-21,16.8-31.3,41.7-31.3s38.6,10.2,41.7,31.3a62.3,62.3,0,0,1-1.3,23.5c-9.6,40.5-32.6,66.2-40.4,74-7.8-7.8-30.7-33.5-40.4-74A62.3,62.3,0,0,1,76.1,38.8Z" fill="#385f7e"/><path d="M117.8,71.2c17.2,0,31.2-12.4,31.2-27.7s-14-27.7-31.2-27.7S86.6,28.3,86.6,43.6,100.6,71.2,117.8,71.2Zm0-47.8c12.5,0,22.7,9,22.7,20.1s-10.2,20.1-22.7,20.1-22.7-9-22.7-20.1S105.3,23.5,117.8,23.5Z" fill="#385f7e"/><path d="M133.4,136.1a3.8,3.8,0,0,0-3.3,4.5,4.2,4.2,0,0,0,4.1,3h.9c2.5-.5,5.2-.9,8-1.2a3.9,3.9,0,0,0,3.7-4.2,4.1,4.1,0,0,0-4.7-3.3C139,135.2,136.1,135.6,133.4,136.1Z" fill="#338c5f"/><path d="M155.3,136.2a4,4,0,0,0,4.2,3.6h.2l8.5-.3a4,4,0,0,0,4-3.9c-.1-2.1-2.3-3.7-4.4-3.6l-8.5.3A4,4,0,0,0,155.3,136.2Z" fill="#338c5f"/><path d="M95.2,155c-2.2,1.5-4.4,2.9-6.7,4.2a3.5,3.5,0,0,0-1.2,5.2,4.4,4.4,0,0,0,3.6,1.7,4.6,4.6,0,0,0,2.3-.6c2.4-1.4,4.9-2.9,7.2-4.5a3.5,3.5,0,0,0,.8-5.3A4.6,4.6,0,0,0,95.2,155Z" fill="#338c5f"/><path d="M189.8,130.2a16.3,16.3,0,0,1-5.7,2,3.8,3.8,0,0,0-3.3,4.4,4.2,4.2,0,0,0,4.2,3h.9a25.1,25.1,0,0,0,8.9-3.2l.6-.4a3.5,3.5,0,0,0,.8-5.3,4.6,4.6,0,0,0-5.9-.7Z" fill="#338c5f"/><path d="M37.6,159.6a3.7,3.7,0,0,0-3-4.6,4.3,4.3,0,0,0-5.2,2.6,22.6,22.6,0,0,0-1,5.3c0,.4,0,.9,0,1.3a21.4,21.4,0,0,0,.1,2.2,4.1,4.1,0,0,0,4.2,3.4h.4a3.9,3.9,0,0,0,3.8-4.1,13.4,13.4,0,0,1-.1-1.5c0-.3,0-.6,0-.9A15.7,15.7,0,0,1,37.6,159.6Z" fill="#338c5f"/><path d="M189.7,100.9a28,28,0,0,0-10.1.7,3.7,3.7,0,0,0-2.9,4.6,4.2,4.2,0,0,0,4.1,2.7h1.2a18.6,18.6,0,0,1,6.7-.5,4.2,4.2,0,0,0,4.8-3.2A3.9,3.9,0,0,0,189.7,100.9Z" fill="#338c5f"/><path d="M198.1,119.6a3.7,3.7,0,0,0,2.8,4.7l1.3.2a4.2,4.2,0,0,0,4.1-2.7,14.4,14.4,0,0,0,.8-3.6c0-.3,0-.6,0-.9a13.5,13.5,0,0,0-1.1-5.2,4.4,4.4,0,0,0-5.5-2.2,3.7,3.7,0,0,0-2.5,4.8,6.8,6.8,0,0,1,.6,2.6v.4A7.6,7.6,0,0,1,198.1,119.6Z" fill="#338c5f"/><path d="M74.2,166.2l-7.5,2.9a3.6,3.6,0,0,0-2.4,4.9,4.3,4.3,0,0,0,4,2.4l1.5-.3,8.1-3.1a3.6,3.6,0,0,0,2-5A4.5,4.5,0,0,0,74.2,166.2Z" fill="#338c5f"/><path d="M43.3,150.6a4.7,4.7,0,0,0,2-.5,11.3,11.3,0,0,1,3.9-1.1h1.7a4.1,4.1,0,0,0,4.8-3.2,3.9,3.9,0,0,0-3.6-4.2,17.6,17.6,0,0,0-3.8,0,20.6,20.6,0,0,0-7,2,3.6,3.6,0,0,0-1.7,5.1A4.4,4.4,0,0,0,43.3,150.6Z" fill="#338c5f"/><path d="M42.4,180.1l2.8.5,3.3.2,4-.2a3.9,3.9,0,0,0,3.7-4.2,4.2,4.2,0,0,0-4.7-3.3,23.4,23.4,0,0,1-5.2.1l-1.7-.3a4.3,4.3,0,0,0-5.2,2.7A3.8,3.8,0,0,0,42.4,180.1Z" fill="#338c5f"/>
    </symbol>
    <symbol id="outreach" viewBox="0 0 171.5 200">
        <path d="M57.3,38.3a16.6,16.6,0,0,0-2.9,4c-.5,1-9.3,22.8-9.3,22.8a132.8,132.8,0,0,1-29.1,43.8l-6.2,6.2c-12.8,12.8-13,33.6-.4,46.2a32.3,32.3,0,0,0,23.1,9.6h0a32.4,32.4,0,0,0,13.7-3l11.4,11.4a3.1,3.1,0,0,0,4.2.1l16.1,16.1a15.3,15.3,0,0,0,22.4-.8,15.5,15.5,0,0,0-.9-21.1L83.5,157.8l2.1-2.1.6-.8a3.1,3.1,0,0,0-.6-3.6l-9-9a132.9,132.9,0,0,1,29.1-16.4s21.7-8.7,23.4-9.7a16.9,16.9,0,0,0,3.3-2.6c11.8-11,3.8-36.8-17.3-57.9S68.7,27,57.3,38.3ZM51.7,164.7a33,33,0,0,0,3.7-3.2l6.5-6.5,3-2.9,7.8,7.8L59.8,172.8Zm30.6,26.5L66.2,175.1l6.1-6.1,16.1,16.1a9.1,9.1,0,0,1,2.7,6.4h0a2.3,2.3,0,0,1-2.3,2.3A9.1,9.1,0,0,1,82.3,191.2Zm12.9-12.9A9.1,9.1,0,0,1,97,188.6a15.2,15.2,0,0,0-4.2-7.9L76.7,164.6l2.4-2.4ZM79.1,153.5l-2,2-7.6-7.6,2.2-1.9ZM103.3,120a138.9,138.9,0,0,0-45.9,30.5L51,157a26.3,26.3,0,0,1-18.6,7.7h0a26.1,26.1,0,0,1-18.7-7.8,26.6,26.6,0,0,1,.4-37.5l6.2-6.2A139.7,139.7,0,0,0,50.8,67.5l2.4-6c2.7,10.9,10.1,23.4,21.4,34.7s21,17.1,31.6,20.5l3.2.9ZM79,72.3v.5a30,30,0,0,0,7.4,11.5,29.1,29.1,0,0,0,11.9,7.6l-9.1,9.1A94.5,94.5,0,0,1,70,81.4Zm25.6,13.4h0c-1.6,1.5-7.8,0-13.7-5.9a24.1,24.1,0,0,1-5.9-9c-.7-2.1-.7-3.9.1-4.7a2.6,2.6,0,0,1,1.9-.6,9.3,9.3,0,0,1,2.8.5,24.1,24.1,0,0,1,9,5.9C104.7,77.9,106.2,84.2,104.6,85.7Zm23.4,23.4a8,8,0,0,1-2.3,1.7,13.2,13.2,0,0,1-2.4,1c-4,1.2-9.3.9-15.3-1.1a61.4,61.4,0,0,1-13.4-6.4L109,90.1h0c4.7-4.7,2.2-14.4-5.8-22.4a30,30,0,0,0-11.5-7.4c-4.6-1.5-8.5-.9-11,1.6h0L66.4,76.2A61.4,61.4,0,0,1,60,62.8c-2-6-2.3-11.3-1-15.3a11.2,11.2,0,0,1,2.7-4.7c2.4-2.4,5.8-3.5,9.9-3.5,10.8,0,26.2,7.8,39.2,20.8C128.8,78.1,136.7,100.6,128.1,109.2Z" fill="#385f7e"/><path d="M168.4,72.9H140.1a3.2,3.2,0,0,0-3.2,2.7,3.1,3.1,0,0,0,3.1,3.5h28.3a3.2,3.2,0,0,0,3.2-2.7A3.1,3.1,0,0,0,168.4,72.9Z" fill="#338c5f"/><path d="M127.1,60.1a3.1,3.1,0,0,0,4.1,1.5L162.6,47a3.1,3.1,0,1,0-2.6-5.6L128.6,56A3.1,3.1,0,0,0,127.1,60.1Z" fill="#338c5f"/><path d="M116.1,48.4a3.1,3.1,0,0,0,4.4-.4l23.3-27.8a3.1,3.1,0,0,0-4.8-4L115.7,44A3.1,3.1,0,0,0,116.1,48.4Z" fill="#338c5f"/><path d="M102.9,38.3h.8a3.1,3.1,0,0,0,3-2.3l8.6-32.2a3.1,3.1,0,1,0-6-1.6l-8.6,32.2A3.1,3.1,0,0,0,102.9,38.3Z" fill="#338c5f"/>
    </symbol>
    <symbol id="reporting" viewBox="0 0 217.8 200">
        <path d="M205.5,23.7H158.2V14.6a4.6,4.6,0,0,0-3.5-4.5,4.5,4.5,0,0,0-5.3,4.5v9.1H101.9A12.2,12.2,0,0,0,89.8,35.9V52.1l-6.4-2.1c-1.7-.6-16.5-5.8-30.2-6.4l-1.8,3.6h.2l5.2,39.9L50.7,97.7,44.5,87.1l5.2-39.9h-.1l-1.8-3.6c-14.2.7-29.8,6.2-30.5,6.5l-.7.4-1.4.8-1,.9-.9,1.2a7.6,7.6,0,0,0-.6,1.4,7.2,7.2,0,0,0-.3.8L.2,110.3A7.6,7.6,0,0,0,6,119.4l1.7.2a7.7,7.7,0,0,0,7.5-6L26.5,63l2.7-.8v52l-6.1,75.4a9.2,9.2,0,0,0,8.4,9.8h.7a9.2,9.2,0,0,0,9.2-8.4L47,122.9a9.2,9.2,0,0,0,7.4,0l5.5,68.1a9.2,9.2,0,0,0,9.2,8.4h.7a9.2,9.2,0,0,0,8.4-9.8l-6.1-75.4V62.4c3.8,1.1,6.4,2,6.4,2h.2l11,3.7v41a12.2,12.2,0,0,0,12.2,12.2h21.9l-19.4,72.9a4.6,4.6,0,0,0,3.2,5.6l1.2.2a4.6,4.6,0,0,0,4.4-3.4l20.1-74.2h16v52.4a4,4,0,0,0,4.1,4.6,4.7,4.7,0,0,0,4.7-4.6V122.4h15.5l20.1,74.2a4.6,4.6,0,0,0,4.4,3.4l1.2-.2a4.6,4.6,0,0,0,3.2-5.6l-19.4-72.9h22.5a12.2,12.2,0,0,0,12.2-12.2V35.9A12.2,12.2,0,0,0,205.5,23.7Z" fill="#385f7e"/><path d="M211.4,109.7a6,6,0,0,1-6.1,5.9H101.7c-3.4,0-6.1-2.7-7.1-6.1v-39l20.3,6.4a7.8,7.8,0,0,0,2.4.4,7.6,7.6,0,0,0,7.2-5.2,7.1,7.1,0,0,0,.2-1.6l45.8-21.2a1.5,1.5,0,0,0-1.3-2.8L124.4,67.3a7.5,7.5,0,0,0-4.7-4.8l-24.1-8V36.6a6.1,6.1,0,0,1,6.1-6.1H204.8a6.1,6.1,0,0,1,6.1,6.1v73.1Z" fill="#f2f7f2"/><path d="M50.3,42.2c10.6,0,19.2-12.3,19.2-23a19.3,19.3,0,1,0-38.5,0C31,29.9,39.7,42.2,50.3,42.2Z" fill="#385f7e"/><path d="M162.5,78.3l3.2-2-3.1-4.9-3.1,2a15.6,15.6,0,0,0-5-3.6l.8-3.6-5.7-1.3-.8,3.6a15.1,15.1,0,0,0-6.1,1l-2-3.2-4.9,3.1,2,3.2a15.3,15.3,0,0,0-3.6,5l-3.6-.8-1.3,5.7,3.6.8a15.3,15.3,0,0,0,1,6.1l-3.2,2,3.1,4.9,3.2-2a14.9,14.9,0,0,0,5,3.6l-.8,3.6,5.7,1.3.8-3.6a15.3,15.3,0,0,0,6.1-1l2,3.2,4.9-3.1-2-3.2a15.4,15.4,0,0,0,3.6-5l3.6.8,1.3-5.7-3.6-.8A15.3,15.3,0,0,0,162.5,78.3Zm-8.8,14.4a10.5,10.5,0,1,1,3.3-14.4A10.5,10.5,0,0,1,153.8,92.7Z" fill="#338c5f"/><path d="M194.1,69.1l-2.8,1a12.3,12.3,0,0,0-3.2-3.7l1.3-2.6-4.2-2.1-1.3,2.7A12.2,12.2,0,0,0,179,64l-1-2.8-4.4,1.5.9,2.8a12.2,12.2,0,0,0-3.7,3.2l-2.7-1.3-2.1,4.2,2.7,1.3a12.2,12.2,0,0,0-.3,4.9l-2.8.9,1.5,4.4,2.8-1a12.1,12.1,0,0,0,3.2,3.7L172,88.5l4.2,2.1,1.3-2.7a12.1,12.1,0,0,0,4.9.3l.9,2.8,4.4-1.5-1-2.8a12.2,12.2,0,0,0,3.7-3.2l2.7,1.3,2.1-4.2-2.6-1.3a12.3,12.3,0,0,0,.3-4.9l2.8-1ZM183.4,84a8.3,8.3,0,1,1,5.2-10.6A8.3,8.3,0,0,1,183.4,84Z" fill="#338c5f"/>
    </symbol>
    <symbol id="strategy" viewBox="0 0 176.4 200">
        <path d="M176.4,0,157.3,14,138.4,58.3H123.2l-6-13.6h4.2a12.9,12.9,0,0,0,12.9-12.9V19h6.1V0H120.8V19h6.8V32.3a6.4,6.4,0,0,1-6.4,6.4h-6.9L106,20.8l9.9-4.9L83.6,2,75.9,28.7A29,29,0,1,0,30.7,53.2v5.1H23l-.5,2.4A72.6,72.6,0,0,0,22,85.5L0,124.8l23.9,5.6v40.5H56.4V200h78V155a84.3,84.3,0,0,0,35.3-69.1V74.2s-.5-9-1.3-13.5l-.5-2.4h-6.3l14.9-35.1V0ZM127.6,12.9V6.1h6.8v6.8ZM116.1,58.3H103.9L98,45.4h12.1ZM87.7,10.9l12.8,5.5-3,1.5,9.6,20.8H95.1L87.2,21.4l-2.9,1.5Zm8.8,47.5H82.2V52a6.5,6.5,0,0,1,6.5-6.5h1.9ZM84.2,30.5l3.9,8.6a12.9,12.9,0,0,0-12,12.8v6.4H63.2V53.5A29.2,29.2,0,0,0,75.5,34.8ZM23.7,29.3a22.9,22.9,0,0,1,45.9,0A22.6,22.6,0,0,1,58.1,48.9l-1.6.9v8.5H50.3V38.4a9.5,9.5,0,0,0-.2-18.3c-7-2-13.4,2.9-13.4,9.2a9.7,9.7,0,0,0,6.8,9.1V58.3H36.8V49.8l-1.6-.9A22.6,22.6,0,0,1,23.7,29.3Zm23.2,3a3.2,3.2,0,1,1,3.2-3.2A3.2,3.2,0,0,1,46.9,32.3ZM162.2,64.4a68.2,68.2,0,0,1,.7,9.7V86.2A78,78,0,0,1,129,150.5l-1.4,1v42.4H63.2V164.7H30.7V125.3L9.8,120.5,28.7,86.7l-.2-1.2a67,67,0,0,1-.2-21.1H162.2Zm-7.7-6.1h-9.1l16.1-37.5,7.2,3.6Zm15.1-40.9-3.6-1.8,3.6-2.7Z" fill="#385f7e"/><path d="M53.4,83.6c-5.3,0-9.7-3.2-9.7-9.7H37.2c0,9.7,7.2,16.1,16.1,16.1s16.1-6.5,16.1-16.1H63.1C63.1,80.4,58.7,83.6,53.4,83.6Z" fill="#338c5f"/>
    </symbol>
    <symbol id="technical" viewBox="0 0 198.7 200">
        <path d="M170.8,160.8a10.3,10.3,0,1,0,10.3,10.3A10.4,10.4,0,0,0,170.8,160.8Zm0,14.6a4.2,4.2,0,1,1,4.2-4.2A4.2,4.2,0,0,1,170.8,175.4Z" fill="#385f7e"/><path d="M198.6,173a27.2,27.2,0,0,0-9-21.9L128,95.4l54.6-54.6,1.1-.4,11.6-6.1a6,6,0,0,0,3.1-4,5.7,5.7,0,0,0-1.6-5.2L183.6,11.9a6,6,0,0,0-4.8-1.8,5.7,5.7,0,0,0-4.5,3l-6.2,11.8a5.8,5.8,0,0,0-.4,1.1L141.9,51.7a3.1,3.1,0,0,0,4.3,4.3l23.6-23.6,6.2,6.2L115.6,99l-6.2-6.2,26.4-26.4a3.1,3.1,0,1,0-4.3-4.3L112.3,81.3,91.5,62.5A47.1,47.1,0,0,0,30.2,3.1a3.1,3.1,0,0,0-1.1,5l24,24a4,4,0,0,1,1.1,2.1,3.8,3.8,0,0,1-1,3.4L37.6,53.1a3.9,3.9,0,0,1-2.1,1.1,3.8,3.8,0,0,1-3.4-1l-24-24a3.1,3.1,0,0,0-1.6-.9,3.1,3.1,0,0,0-3.5,1.9A47.1,47.1,0,0,0,61.5,91.8l16.1,17.6a16.5,16.5,0,0,1-20.7,7.9,3.1,3.1,0,0,0-3.3.7L16.1,155.5a26.1,26.1,0,0,0,3.7,39.9,25.2,25.2,0,0,0,10.1,4.1,26,26,0,0,0,23-7.2l37.5-37.5a3.1,3.1,0,0,0,.7-3.3,16.6,16.6,0,0,1,21.4-21.5,3.1,3.1,0,0,0,3.3-.7l6.8-6.8a11.8,11.8,0,0,0,3.6-7.7,11.2,11.2,0,0,0-3.3-8.5l-3-3,3.7-3.7,61.5,55.5a21.9,21.9,0,0,1,7.4,15.8,21.2,21.2,0,0,1-36.9,14.7l-46.1-50.4c-1.8-2-5.6-1-5.5,3l47,51.4a27.1,27.1,0,0,0,19.6,8.9h.6A27.3,27.3,0,0,0,198.6,173Z" fill="#385f7e"/><polygon points="173.6 27.5 179.5 16.4 192.1 29 181 34.8 173.6 27.5" fill="#338c5f"/><path d="M64.7,86.2a3.1,3.1,0,0,0-3.3-.8A40.9,40.9,0,0,1,7.4,37L27.9,57.5a9.9,9.9,0,0,0,14,0L57.5,41.9a9.9,9.9,0,0,0,0-14L37,7.4A40.9,40.9,0,0,1,85.1,62.2a3.1,3.1,0,0,0,.8,3.4l22.1,20-2.9,2.9-3-3a11.3,11.3,0,0,0-16,0L79,92.6a3.1,3.1,0,0,0-.7,3.3,16.6,16.6,0,0,1,1.1,6.5Z" fill="#f2f7f2"/><path d="M118.6,118l-5.7,5.7a22.7,22.7,0,0,0-22.3,5.8h0a22.7,22.7,0,0,0-5.8,22.3L48.6,188a19.9,19.9,0,0,1-28.2-28.2l36.2-36.2A22.7,22.7,0,0,0,84.7,95.5l5.7-5.7a5.2,5.2,0,0,1,7.3,0l5.2,5.2,10.5,10.5,5.2,5.2A5.2,5.2,0,0,1,118.6,118Z" fill="#338c5f"/><path d="M62.8,135.3a3.1,3.1,0,0,0-4.3,0l-29,29a3.1,3.1,0,0,0,4.3,4.3l29-29A3.1,3.1,0,0,0,62.8,135.3Z" fill="#385f7e"/><path d="M73.5,146a3.1,3.1,0,0,0-4.3,0l-29,29a3.1,3.1,0,0,0,4.3,4.3l29-29A3.1,3.1,0,0,0,73.5,146Z" fill="#385f7e"/>
    </symbol>
</svg>
