<svg xmlns="http://www.w3.org/2000/svg" viewBox="0 0 176.4 200"><title>strategy</title><path d="M176.4,0,157.3,14,138.4,58.3H123.2l-6-13.6h4.2a12.9,12.9,0,0,0,12.9-12.9V19h6.1V0H120.8V19h6.8V32.3a6.4,6.4,0,0,1-6.4,6.4h-6.9L106,20.8l9.9-4.9L83.6,2,75.9,28.7A29,29,0,1,0,30.7,53.2v5.1H23l-.5,2.4A72.6,72.6,0,0,0,22,85.5L0,124.8l23.9,5.6v40.5H56.4V200h78V155a84.3,84.3,0,0,0,35.3-69.1V74.2s-.5-9-1.3-13.5l-.5-2.4h-6.3l14.9-35.1V0ZM127.6,12.9V6.1h6.8v6.8ZM116.1,58.3H103.9L98,45.4h12.1ZM87.7,10.9l12.8,5.5-3,1.5,9.6,20.8H95.1L87.2,21.4l-2.9,1.5Zm8.8,47.5H82.2V52a6.5,6.5,0,0,1,6.5-6.5h1.9ZM84.2,30.5l3.9,8.6a12.9,12.9,0,0,0-12,12.8v6.4H63.2V53.5A29.2,29.2,0,0,0,75.5,34.8ZM23.7,29.3a22.9,22.9,0,0,1,45.9,0A22.6,22.6,0,0,1,58.1,48.9l-1.6.9v8.5H50.3V38.4a9.5,9.5,0,0,0-.2-18.3c-7-2-13.4,2.9-13.4,9.2a9.7,9.7,0,0,0,6.8,9.1V58.3H36.8V49.8l-1.6-.9A22.6,22.6,0,0,1,23.7,29.3Zm23.2,3a3.2,3.2,0,1,1,3.2-3.2A3.2,3.2,0,0,1,46.9,32.3ZM162.2,64.4a68.2,68.2,0,0,1,.7,9.7V86.2A78,78,0,0,1,129,150.5l-1.4,1v42.4H63.2V164.7H30.7V125.3L9.8,120.5,28.7,86.7l-.2-1.2a67,67,0,0,1-.2-21.1H162.2Zm-7.7-6.1h-9.1l16.1-37.5,7.2,3.6Zm15.1-40.9-3.6-1.8,3.6-2.7Z" fill="#385f7e"/><path d="M53.4,83.6c-5.3,0-9.7-3.2-9.7-9.7H37.2c0,9.7,7.2,16.1,16.1,16.1s16.1-6.5,16.1-16.1H63.1C63.1,80.4,58.7,83.6,53.4,83.6Z" fill="#338c5f"/></svg>