<svg xmlns="http://www.w3.org/2000/svg" viewBox="0 0 198.7 200"><title>technical</title><path d="M170.8,160.8a10.3,10.3,0,1,0,10.3,10.3A10.4,10.4,0,0,0,170.8,160.8Zm0,14.6a4.2,4.2,0,1,1,4.2-4.2A4.2,4.2,0,0,1,170.8,175.4Z" fill="#385f7e"/><path d="M198.6,173a27.2,27.2,0,0,0-9-21.9L128,95.4l54.6-54.6,1.1-.4,11.6-6.1a6,6,0,0,0,3.1-4,5.7,5.7,0,0,0-1.6-5.2L183.6,11.9a6,6,0,0,0-4.8-1.8,5.7,5.7,0,0,0-4.5,3l-6.2,11.8a5.8,5.8,0,0,0-.4,1.1L141.9,51.7a3.1,3.1,0,0,0,4.3,4.3l23.6-23.6,6.2,6.2L115.6,99l-6.2-6.2,26.4-26.4a3.1,3.1,0,1,0-4.3-4.3L112.3,81.3,91.5,62.5A47.1,47.1,0,0,0,30.2,3.1a3.1,3.1,0,0,0-1.1,5l24,24a4,4,0,0,1,1.1,2.1,3.8,3.8,0,0,1-1,3.4L37.6,53.1a3.9,3.9,0,0,1-2.1,1.1,3.8,3.8,0,0,1-3.4-1l-24-24a3.1,3.1,0,0,0-1.6-.9,3.1,3.1,0,0,0-3.5,1.9A47.1,47.1,0,0,0,61.5,91.8l16.1,17.6a16.5,16.5,0,0,1-20.7,7.9,3.1,3.1,0,0,0-3.3.7L16.1,155.5a26.1,26.1,0,0,0,3.7,39.9,25.2,25.2,0,0,0,10.1,4.1,26,26,0,0,0,23-7.2l37.5-37.5a3.1,3.1,0,0,0,.7-3.3,16.6,16.6,0,0,1,21.4-21.5,3.1,3.1,0,0,0,3.3-.7l6.8-6.8a11.8,11.8,0,0,0,3.6-7.7,11.2,11.2,0,0,0-3.3-8.5l-3-3,3.7-3.7,61.5,55.5a21.9,21.9,0,0,1,7.4,15.8,21.2,21.2,0,0,1-36.9,14.7l-46.1-50.4c-1.8-2-5.6-1-5.5,3l47,51.4a27.1,27.1,0,0,0,19.6,8.9h.6A27.3,27.3,0,0,0,198.6,173Z" fill="#385f7e"/><polygon points="173.6 27.5 179.5 16.4 192.1 29 181 34.8 173.6 27.5" fill="#338c5f"/><path d="M64.7,86.2a3.1,3.1,0,0,0-3.3-.8A40.9,40.9,0,0,1,7.4,37L27.9,57.5a9.9,9.9,0,0,0,14,0L57.5,41.9a9.9,9.9,0,0,0,0-14L37,7.4A40.9,40.9,0,0,1,85.1,62.2a3.1,3.1,0,0,0,.8,3.4l22.1,20-2.9,2.9-3-3a11.3,11.3,0,0,0-16,0L79,92.6a3.1,3.1,0,0,0-.7,3.3,16.6,16.6,0,0,1,1.1,6.5Z" fill="#f2f7f2"/><path d="M118.6,118l-5.7,5.7a22.7,22.7,0,0,0-22.3,5.8h0a22.7,22.7,0,0,0-5.8,22.3L48.6,188a19.9,19.9,0,0,1-28.2-28.2l36.2-36.2A22.7,22.7,0,0,0,84.7,95.5l5.7-5.7a5.2,5.2,0,0,1,7.3,0l5.2,5.2,10.5,10.5,5.2,5.2A5.2,5.2,0,0,1,118.6,118Z" fill="#338c5f"/><path d="M62.8,135.3a3.1,3.1,0,0,0-4.3,0l-29,29a3.1,3.1,0,0,0,4.3,4.3l29-29A3.1,3.1,0,0,0,62.8,135.3Z" fill="#385f7e"/><path d="M73.5,146a3.1,3.1,0,0,0-4.3,0l-29,29a3.1,3.1,0,0,0,4.3,4.3l29-29A3.1,3.1,0,0,0,73.5,146Z" fill="#385f7e"/></svg>