<svg xmlns="http://www.w3.org/2000/svg" viewBox="0 0 258 257.5"><title>calendar-color</title><rect x="82.6" y="115.9" width="23" height="23.02" rx="4" ry="4" fill="#385f7e"/><rect x="113.5" y="115.9" width="23" height="23.02" rx="4" ry="4" fill="#385f7e"/><rect x="144.8" y="115.9" width="23" height="23.02" rx="4" ry="4" fill="#385f7e"/><rect x="82.6" y="146.3" width="23" height="23.02" rx="4" ry="4" fill="#385f7e"/><rect x="113.5" y="146.3" width="23" height="23.02" rx="4" ry="4" fill="#385f7e"/><rect x="144.8" y="146.3" width="23" height="23.02" rx="4" ry="4" fill="#385f7e"/><rect x="51.3" y="176.2" width="23" height="23.02" rx="4" ry="4" fill="#385f7e"/><rect x="51.3" y="146.3" width="23" height="23.02" rx="4" ry="4" fill="#385f7e"/><rect x="113.5" y="176.2" width="23" height="23.02" rx="4" ry="4" fill="#385f7e"/><rect x="82.6" y="176.2" width="23" height="23.02" rx="4" ry="4" fill="#385f7e"/><rect x="175.7" y="115.9" width="23" height="23.02" rx="4" ry="4" fill="#385f7e"/><path d="M27.6,250H160.9a71.8,71.8,0,0,1-3.4-21.3H27.5a6.2,6.2,0,0,1-6.2-6.2V97.7H228.7v58.1a72.1,72.1,0,0,1,21.3,3.3V54.4A27.4,27.4,0,0,0,222.6,27H192V10A10,10,0,0,0,182,0H166.3a10,10,0,0,0-10,10V27H93.7V10a10,10,0,0,0-10-10H67.9A9.9,9.9,0,0,0,58,9.9V27H27A27,27,0,0,0,0,54V222.5A27.6,27.6,0,0,0,27.6,250Z" fill="#385f7e"/><circle cx="213.4" cy="212.9" r="44.6" fill="#338c5f"/><path d="M235.9,201.3a5.2,5.2,0,0,0-1.6-3.8,5.3,5.3,0,0,0-7.6,0l-19.4,19.4-7.4-7.4a5.3,5.3,0,0,0-7.6,0,5.3,5.3,0,0,0-1.6,3.8,5.2,5.2,0,0,0,1.6,3.8l11.2,11.2a5.3,5.3,0,0,0,7.6,0l23.2-23.2A5,5,0,0,0,235.9,201.3Z" fill="#f2f7f2"/></svg>