<svg xmlns="http://www.w3.org/2000/svg" viewBox="0 0 180.5 239.9"><title>report-color</title><rect x="26.5" y="158.4" width="129" height="56" fill="#338c5f"/><path d="M160.1,20.1h-21a14.9,14.9,0,0,0-14-9.8H110a25,25,0,0,0-39.7,0H55.3a14.9,14.9,0,0,0-14,9.8H20.4A20,20,0,0,0,.5,40.1V219.5a19.9,19.9,0,0,0,19.9,19.9H160.1A19.9,19.9,0,0,0,180,219.5V40.1A19.9,19.9,0,0,0,160.1,20.1Zm-110,5a5,5,0,0,1,5-5H72.8a5,5,0,0,0,4.3-2.5,14.8,14.8,0,0,1,25.8,0,5,5,0,0,0,4.3,2.5H125a5,5,0,0,1,5,5v5.1a10,10,0,0,1-10,10H60a10,10,0,0,1-10-10V25.2Zm85,184.3H45.4a5,5,0,0,1-5.1-4.5,4.9,4.9,0,0,1,5-5.3H135a5,5,0,0,1,5.1,4.5A4.9,4.9,0,0,1,135,209.5Zm0-29.9H45.4a5,5,0,0,1-5.1-4.5,4.9,4.9,0,0,1,5-5.3H135a5,5,0,0,1,5.1,4.5A4.9,4.9,0,0,1,135,179.6Zm5-54.5a5,5,0,0,1-5.1,4.5h-9.9a5,5,0,0,1-4.5-2.7l-4.9-9.6L104.8,146a5,5,0,0,1-4.7,3.2h-.3a5,5,0,0,1-4.6-3.7l-11.7-46L69.7,126.8a5,5,0,0,1-4.5,2.7H45.4a5,5,0,0,1-5.1-4.5,4.9,4.9,0,0,1,5-5.3H62.1L80.7,83.2a5,5,0,0,1,5-2.7A5,5,0,0,1,90,84.2l11.1,43.6,9.3-24.5a5,5,0,0,1,9.1-.5l8.6,16.9H135A4.9,4.9,0,0,1,140,125.1Z" fill="#385f7e" stroke="#385f7e" stroke-miterlimit="10"/></svg>