<svg xmlns="http://www.w3.org/2000/svg" style="display: none;"><symbol id="tool" viewBox="0 0 50 50"><title>tool</title><path d="M46.966,23.345c0-3.814-3.115-6.92-6.931-6.92s-6.933,3.105-6.933,6.92c0,3.435,2.496,6.267,5.769,6.813v7.267 c0,5.664-4.597,10.261-10.261,10.261c-5.664,0-10.262-4.598-10.262-10.261L18.323,29.1c2.686-0.358,5.311-1.929,7.646-4.612 c0.343-0.394,0.447-0.902,0.388-1.387c3.052-4.035,4.945-9.53,4.945-13.754c0-6.521-2.922-7.198-7.754-8.304l-0.007-0.012 C23.244,0.433,22.644,0,21.917,0c-1.021,0-1.849,0.827-1.849,1.836c0,1.021,0.827,1.848,1.849,1.848 c0.404,0,0.783-0.168,1.084-0.407l0.043,0.016c4.691,1.077,5.957,1.369,5.957,6.054c0,3.715-1.758,8.69-4.445,12.282 c-0.445,0.026-0.885,0.222-1.214,0.588c-1.373,1.589-3.567,3.491-6.159,3.491c-2.59,0-4.782-1.884-6.155-3.469 c-0.33-0.366-0.769-0.562-1.211-0.587c-2.694-3.605-4.456-8.586-4.456-12.306c0-4.688,1.245-4.979,5.965-6.056l0.016-0.015 c0.324,0.239,0.677,0.408,1.107,0.408c1.021,0,1.848-0.828,1.848-1.848C14.296,0.827,13.47,0,12.448,0 c-0.729,0-1.328,0.433-1.646,1.029L10.798,1.03C5.961,2.146,3.034,2.811,3.034,9.347c0,4.228,1.9,9.743,4.979,13.777 c-0.059,0.485,0.046,0.994,0.389,1.387c2.333,2.665,4.933,4.23,7.616,4.589l0.003,8.324C16.022,44.359,21.676,50,28.61,50 c6.934,0,12.564-5.641,12.564-12.576v-7.267C44.446,29.611,46.966,26.779,46.966,23.345z M40.035,27.975 c-2.543,0-4.63-2.074-4.63-4.628c0-2.544,2.087-4.617,4.63-4.617s4.606,2.073,4.606,4.617 C44.642,25.9,42.578,27.975,40.035,27.975z"/><path d="M40.035,19.891c-1.91,0-3.466,1.545-3.466,3.455c0,1.921,1.556,3.464,3.466,3.464c1.909,0,3.466-1.543,3.466-3.464 C43.501,21.436,41.944,19.891,40.035,19.891z"/></symbol><symbol id="idea" viewBox="0 0 511.999 511.999"><title>idea</title><g> <g> <path d="M499.941,305.303l-41.945-83.888c-1.043-66.085-30.773-127.909-81.93-170.084c-25.327-20.88-54.194-35.67-85.796-43.96 c-33.186-8.705-67.578-9.705-102.226-2.974C99.257,21.646,28.52,93.061,12.023,182.104 c-11.613,62.683,2.33,125.029,39.262,175.553C81.435,398.901,98.039,448.388,98.039,497c0,8.284,6.716,14.999,14.999,14.999 h209.991c8.284,0,14.899-6.716,14.899-14.999v-39.198c0-4.301,3.599-7.8,7.9-7.8h67.197c24.812,0,44.898-20.186,44.898-44.998 v-44.998h8.109c13.196,0,25.316-6.702,32.254-17.927S505.841,317.106,499.941,305.303z M472.767,326.309 c-0.688,1.112-2.71,3.699-6.635,3.699h-23.108c-8.284,0-14.999,6.716-14.999,14.999v59.997c0,8.271-6.729,14.999-14.999,14.999 h-67.197c-20.842,0-37.798,16.956-37.798,37.798v24.199H127.578c-3.059-49.996-21.278-99.918-52.075-142.048 c-32.008-43.787-44.077-97.905-33.983-152.384c14.27-77.028,75.454-138.804,152.244-153.723 c58.594-11.385,118.086,3.426,163.218,40.633c45.148,37.221,71.042,92.089,71.042,150.535c0,2.329,0.542,4.625,1.583,6.708 l43.5,86.999C474.864,322.232,473.455,325.197,472.767,326.309z"/> </g> </g><g> <g> <path d="M208.486,153.302c-29.167,7.816-53.367,31.549-61.65,60.462c-8.988,31.372-1.411,64.031,20.268,87.366 c13.531,14.565,20.984,32.227,20.984,49.732v24.143c0,24.812,20.186,44.998,44.998,44.998c24.812,0,44.897-20.186,44.898-44.998 v-24.043c0-21.848,12.08-39.782,22.132-50.98c14.81-16.5,22.966-37.798,22.966-59.972 C323.081,181.295,267.706,137.433,208.486,153.302z M248.085,375.006c0,8.271-6.729,14.999-14.999,14.999 s-15.099-6.729-15.099-14.999v-14.999h30.099V375.006z M277.79,279.945c-13.93,15.52-23.151,32.634-27.258,50.162h-34.81 c-4.036-17.77-13.152-34.876-26.642-49.395c-14.678-15.8-19.565-37.19-13.406-58.686c5.443-19,21.37-34.603,40.576-39.748 c40.175-10.764,76.833,18.777,76.833,57.734C293.083,254.776,287.652,268.959,277.79,279.945z"/> </g> </g><g> <g> <path d="M233.085,60.02c-8.284,0-14.999,6.716-14.999,14.999v29.999c0,8.284,6.716,14.999,14.999,14.999 s14.899-6.716,14.899-14.999V75.019C247.985,66.736,241.369,60.02,233.085,60.02z"/> </g> </g><g> <g> <path d="M113.09,210.113H83.092c-8.284,0-14.999,6.616-14.999,14.899s6.716,14.999,14.999,14.999h29.999 c8.284,0,14.999-6.716,14.999-14.999S121.375,210.113,113.09,210.113z"/> </g> </g><g> <g> <path d="M383.079,210.113H353.08c-8.284,0-14.999,6.616-14.999,14.899s6.716,14.999,14.999,14.999h29.999 c8.284,0,14.999-6.716,14.999-14.999S391.363,210.113,383.079,210.113z"/> </g> </g><g> <g> <path d="M349.753,108.345c-5.857-5.858-15.354-5.858-21.212,0l-21.212,21.212c-5.858,5.858-5.858,15.354,0,21.212 c5.857,5.857,15.354,5.858,21.212,0l21.212-21.212C355.611,123.699,355.611,114.203,349.753,108.345z"/> </g> </g><g> <g> <path d="M158.842,129.558l-21.212-21.212c-5.857-5.858-15.354-5.858-21.212,0c-5.858,5.858-5.858,15.354,0,21.212l21.212,21.212 c5.857,5.857,15.355,5.858,21.212,0C164.7,144.912,164.7,135.416,158.842,129.558z"/> </g> </g></symbol><symbol id="map-location" viewBox="0 0 55.017 55.017"><title>map-location</title><path d="M51.688,23.013H40.789c-0.553,0-1,0.447-1,1s0.447,1,1,1h9.102l2.899,27H2.268l3.403-27h9.118c0.553,0,1-0.447,1-1 s-0.447-1-1-1H3.907L0,54.013h55.017L51.688,23.013z"/><path d="M17.48,45.164c-0.586,0.275-1.183,0.53-1.774,0.759c-0.515,0.198-0.771,0.777-0.572,1.293 c0.153,0.396,0.531,0.64,0.933,0.64c0.12,0,0.242-0.021,0.36-0.067c0.635-0.245,1.275-0.519,1.903-0.813 c0.5-0.234,0.715-0.83,0.48-1.33C18.576,45.145,17.984,44.928,17.48,45.164z"/><path d="M36.598,37.573c0.021,0.538,0.465,0.959,0.998,0.959c0.014,0,0.028,0,0.042-0.001l2.002-0.082 c0.552-0.025,0.979-0.493,0.954-1.044c-0.025-0.553-0.504-1.004-1.045-0.954l-1.993,0.082 C37.004,36.555,36.575,37.021,36.598,37.573z"/><path d="M31.427,37.171c-0.54,0.114-0.884,0.646-0.769,1.187c0.1,0.47,0.515,0.791,0.977,0.791c0.069,0,0.14-0.007,0.21-0.022 c0.586-0.124,1.221-0.229,1.886-0.313c0.548-0.067,0.938-0.567,0.869-1.115c-0.068-0.549-0.562-0.95-1.115-0.869 C32.762,36.919,32.069,37.034,31.427,37.171z"/><path d="M22.433,42.177c-0.514,0.388-1.045,0.761-1.58,1.107c-0.463,0.301-0.595,0.92-0.294,1.384 c0.191,0.295,0.513,0.455,0.84,0.455c0.187,0,0.375-0.052,0.544-0.161c0.573-0.372,1.144-0.772,1.695-1.188 c0.44-0.333,0.528-0.96,0.196-1.401C23.501,41.936,22.876,41.845,22.433,42.177z"/><path d="M9.994,48.842c0.216,0.057,0.436,0.098,0.653,0.124c0.256,0.031,0.512,0.047,0.769,0.047c0.312,0,0.626-0.022,0.939-0.062 c0.548-0.069,0.937-0.569,0.867-1.117c-0.068-0.548-0.566-0.933-1.117-0.867c-0.403,0.052-0.811,0.064-1.215,0.015 c-0.133-0.017-0.265-0.042-0.396-0.075c-0.533-0.143-1.08,0.183-1.218,0.718C9.138,48.159,9.459,48.705,9.994,48.842z"/><path d="M46.688,32.763c-0.164,0.527,0.132,1.088,0.659,1.251c0.099,0.03,0.198,0.045,0.296,0.045c0.427,0,0.822-0.275,0.955-0.704 c0.099-0.317,0.16-0.64,0.183-0.964c0.005-0.083,0.008-0.166,0.008-0.25c0-0.467-0.086-0.935-0.255-1.39 c-0.192-0.519-0.771-0.781-1.285-0.59c-0.519,0.192-0.782,0.768-0.59,1.285c0.086,0.232,0.13,0.466,0.13,0.694l-0.004,0.116 C46.774,32.422,46.741,32.592,46.688,32.763z"/><path d="M10.201,41c0.161,0,0.324-0.039,0.476-0.121c0.29-0.157,0.597-0.255,0.913-0.289c0.135-0.016,0.273-0.016,0.406,0.002 c0.563,0.07,1.05-0.314,1.122-0.86c0.072-0.548-0.313-1.05-0.86-1.122c-0.298-0.04-0.601-0.041-0.891-0.008 c-0.572,0.063-1.126,0.238-1.644,0.52c-0.485,0.264-0.666,0.87-0.402,1.355C9.502,40.811,9.846,41,10.201,41z"/><path d="M43.373,36.109c-0.541,0.111-0.889,0.641-0.777,1.182c0.098,0.473,0.514,0.798,0.979,0.798 c0.066,0,0.135-0.007,0.203-0.021c0.844-0.174,1.528-0.451,2.072-0.835c0.059-0.039,0.114-0.08,0.169-0.122 c0.436-0.339,0.479-0.941,0.14-1.378c-0.337-0.435-1.002-0.49-1.438-0.149C44.379,35.823,43.951,35.99,43.373,36.109z"/><path d="M8.86,43.401c0.145-0.533-0.171-1.082-0.704-1.226c-0.529-0.148-1.082,0.169-1.226,0.704 c-0.126,0.464-0.201,0.938-0.225,1.406C6.7,44.4,6.697,44.516,6.697,44.632c0,0.197,0.009,0.395,0.028,0.592 c0.053,0.515,0.487,0.898,0.994,0.898c0.033,0,0.067-0.002,0.103-0.005c0.549-0.057,0.949-0.547,0.894-1.097 c-0.014-0.129-0.019-0.26-0.019-0.389c0-0.083,0.003-0.166,0.007-0.248C8.72,44.058,8.772,43.727,8.86,43.401z"/><path d="M44.698,27.81c-0.789-0.106-1.607-0.04-2.386,0.18c-0.532,0.149-0.841,0.702-0.69,1.233 c0.124,0.441,0.525,0.729,0.961,0.729c0.091,0,0.182-0.012,0.272-0.038c0.517-0.145,1.055-0.19,1.575-0.121 c0.562,0.073,1.052-0.311,1.125-0.857C45.629,28.387,45.245,27.884,44.698,27.81z"/><path d="M26.655,38.968c-0.147,0.087-0.307,0.165-0.447,0.256c-0.219,0.142-0.432,0.29-0.641,0.441 c-0.446,0.325-0.545,0.951-0.22,1.397c0.196,0.269,0.501,0.411,0.81,0.411c0.204,0,0.41-0.063,0.588-0.191 c0.18-0.132,0.363-0.259,0.552-0.382c0.316-0.205,0.656-0.399,1.01-0.577c0.47-0.236,0.661-0.792,0.464-1.271 c0.008-0.008,0.018-0.014,0.026-0.023c1.809-1.916,7.905-9.096,10.429-21.058c0.512-2.426,0.627-4.754,0.342-6.918 c-0.86-6.575-4.945-10.051-11.813-10.051c-6.866,0-10.951,3.476-11.813,10.051c-0.284,2.166-0.169,4.493,0.343,6.918 C18.784,29.821,24.788,36.975,26.655,38.968z M27.755,5.233c4.051,0,7.346,3.295,7.346,7.346s-3.295,7.346-7.346,7.346 s-7.346-3.295-7.346-7.346S23.704,5.233,27.755,5.233z"/></symbol><symbol id="settings" viewBox="0 0 512 512"><title>settings</title><g> <g> <path d="M510.089,386.605c-8.387-44.24-47.44-81.939-97.794-84.463c-16.411-0.81-35.121-9.83-48.832-23.541l-33.891-33.881 l93.013-91.893l10.68,10.67c7.368,7.393,19.905,5.166,24.261-4.4l53.032-116.674c2.59-5.69,1.37-12.391-3.05-16.811L486.298,4.391 c-4.42-4.42-11.12-5.63-16.811-3.05L352.803,54.383c-9.461,4.288-11.836,16.804-4.4,24.261l10.54,10.54l-93.013,91.893 l-33.621-33.611c-13.911-13.911-21.851-30.211-22.361-45.882c-0.86-26.751-11.77-51.902-30.691-70.833 C148.066-0.439,100.154-8.579,60.032,10.501c-4.4,2.09-7.51,6.19-8.34,11c-0.83,4.8,0.73,9.7,4.17,13.15l34.141,34.141v21.211 H68.793L34.652,55.863c-3.44-3.44-8.35-5-13.151-4.17c-4.81,0.83-8.91,3.94-11,8.34c-22.521,47.352-7.19,103.094,36.431,132.535 c15.761,10.64,34.421,16.661,53.952,17.401c13.911,0.54,27.811,6.23,39.841,16.161c-4.452,11.407-4.119,24.498,1.35,35.871 L13.141,392.816c-17.501,17.551-17.491,46.062,0.04,63.592l42.432,42.432c17.518,17.518,46.045,17.577,63.642,0 c0.02-0.03,0.05-0.05,0.07-0.08l128.865-130.735c11.216,5.345,24.269,5.744,35.701,1.26c10.71,12.91,17.551,28.821,18.251,43.012 c2.541,50.395,40.247,89.411,84.463,97.794c35.118,6.605,70.308-4.465,94.664-28.821 C505.879,456.648,516.649,421.267,510.089,386.605z M472.438,32.962l6.51,6.51l-39.781,87.503l-54.242-54.242L472.438,32.962z M102.034,179.988c-13.941-0.53-27.191-4.78-38.321-12.29c-24.711-16.681-36.751-45.132-32.711-73.053l20.971,20.971 c2.81,2.81,6.63,4.39,10.6,4.39h42.432c8.28,0,15.001-6.72,15.001-15.001V62.573c0-3.97-1.58-7.79-4.39-10.6L94.674,31.032 c22.921-3.27,46.562,4.13,63.362,20.941c13.521,13.521,21.311,31.481,21.931,50.582c0.76,23.321,11.81,46.802,31.131,66.122 l33.481,33.481l-19.431,19.201l-10.67-10.67c-14.912-14.912-37.248-16.944-54.132-7.27 C143.136,189.028,122.755,180.788,102.034,179.988z M98.004,477.659c-5.85,5.82-15.341,5.8-21.181-0.03l-42.432-42.432 c-5.85-5.85-5.85-15.361,0-21.211l0.08-0.08l127.045-128.895l63.642,63.642L98.004,477.659z M278.121,337.974 c-5.847,5.847-15.343,5.868-21.211,0l-84.863-84.863c-5.883-5.883-5.834-15.378,0-21.211c5.85-5.851,15.364-5.857,21.221,0 l84.853,84.853C283.971,322.603,283.971,332.123,278.121,337.974z M267.58,263.781l-21.211-21.211l133.795-132.175l21.211,21.221 C393.969,138.932,274.803,256.647,267.58,263.781z M460.047,460.048c-17.851,17.861-42.582,25.351-67.853,20.561 c-31.27-5.93-58.239-33.486-60.092-69.783c-1.02-20.921-10.4-43.172-25.491-61.162c3.84-6.72,5.9-14.351,5.9-22.301 c0-12.02-4.68-23.321-13.18-31.821l-10.54-10.54l19.441-19.201l34.011,34.021c19.051,19.041,44.682,31.111,68.583,32.281 c36.211,1.852,63.848,28.751,69.783,60.092C485.398,417.467,477.908,442.197,460.047,460.048z"/> </g> </g><g> <g> <path d="M407.015,362.014c-24.811,0-45.002,20.191-45.002,45.002c0,24.811,20.191,45.002,45.002,45.002 s45.002-20.191,45.002-45.002C452.017,382.205,431.826,362.014,407.015,362.014z M407.015,422.017 c-8.27,0-15.001-6.73-15.001-15.001c0-8.27,6.73-15.001,15.001-15.001s15.001,6.73,15.001,15.001 C422.016,415.286,415.286,422.017,407.015,422.017z"/> </g> </g></symbol><symbol id="megaphone-with-sound-waves" viewBox="0 0 399.193 399.193"><title>megaphone-with-sound-waves</title><path d="M375.337,97.308c-3.136-4.547-9.364-5.691-13.909-2.557c-4.547,3.135-5.692,9.362-2.557,13.909 c13.295,19.284,20.322,42.543,20.322,67.264c0,24.627-7.35,48.709-20.694,67.81c-3.163,4.527-2.058,10.762,2.47,13.925 c1.744,1.219,3.741,1.804,5.719,1.804c3.155,0,6.262-1.491,8.206-4.273c15.897-22.753,24.3-50.163,24.3-79.265 C399.193,147.131,390.943,119.946,375.337,97.308z"/><path d="M342.47,125.562c-3.134-4.547-9.361-5.692-13.909-2.557c-4.547,3.135-5.691,9.362-2.556,13.909 c7.72,11.197,11.801,24.726,11.801,39.124c0,14.344-4.268,28.352-12.016,39.443c-3.163,4.527-2.058,10.762,2.47,13.925 c1.744,1.218,3.741,1.803,5.719,1.803c3.156,0,6.262-1.49,8.206-4.274c10.22-14.627,15.621-32.228,15.621-50.897 C357.806,157.567,352.503,140.113,342.47,125.562z"/><path d="M303.027,20.495c-4.954,0-9.532,2.757-13.586,8.167c-0.328,0.432-33.738,43.425-117.107,69.128 c-7.914,2.44-16.663,4.163-16.748,4.18c-1.978,0.386-3.888,1.004-5.707,1.82c-3.508-5.791-9.85-9.681-17.1-9.681H48.635 c-11.028,0-20,8.972-20,20v10.979c-1.402-0.22-2.844-0.342-4.317-0.342C10.909,124.746,0,134.272,0,145.98v55.29 c0,11.708,10.909,21.234,24.317,21.234c1.474,0,2.915-0.121,4.317-0.342v8.979c0,11.028,8.972,20,20,20h2.704L76.731,356.46 c3.007,12.47,15.41,22.238,28.237,22.238h26.873c7.017,0,13.365-2.951,17.417-8.096c4.053-5.145,5.434-12.008,3.789-18.83 l-24.262-100.631h3.993c7.253,0,13.597-3.893,17.104-9.687c1.816,0.815,3.724,1.432,5.698,1.818 c0.087,0.017,8.836,1.742,16.748,4.186c83.375,25.756,116.782,68.707,117.09,69.11c4.074,5.433,8.651,8.188,13.604,8.188 c0,0,0,0,0.001,0c4.896,0,9.178-2.776,11.453-7.425c1.307-2.668,1.941-5.862,1.941-9.763V37.681 C316.419,20.977,304.397,20.495,303.027,20.495z M24.317,202.504c-2.463,0-3.935-1.02-4.317-1.5v-54.759 c0.383-0.48,1.854-1.5,4.317-1.5s3.935,1.02,4.317,1.5v54.759C28.252,201.485,26.78,202.504,24.317,202.504z M133.604,356.46 c0.216,0.896,0.127,1.533-0.058,1.768s-0.783,0.471-1.705,0.471h-26.873c-3.662,0-7.936-3.366-8.794-6.926L71.912,251.141h36.3 L133.604,356.46z M48.635,231.141V201.27v-55.29v-31.871h84.145l0,15.539c0,0.004,0,0.007,0,0.011v85.922 c0,0.024,0.002,0.047,0.002,0.071l0,15.489H48.635z M296.419,294.556c-15.581-15.585-52.326-45.861-118.187-66.207 c-8.957-2.768-18.415-4.627-18.813-4.706c-3.413-0.667-6.64-4.585-6.64-8.063v-85.922c0-3.477,3.227-7.394,6.639-8.06 c0.398-0.078,9.853-1.935,18.809-4.697c65.854-20.303,102.604-50.591,118.192-66.192V294.556z"/></symbol><symbol id="business" viewBox="0 0 199.975 199.975"><title>business</title><path d="M188.772,30.23h-43.426v-8.405c0-2.317-1.882-4.202-4.202-4.202s-4.203,1.885-4.203,4.202v8.405H93.519 c-6.18,0-11.206,5.029-11.206,11.208v14.755l-5.834-1.945c-1.524-0.542-15.119-5.278-27.642-5.894l-1.669,3.333h-0.047 l4.721,36.737l-5.604,9.792l-5.603-9.792l4.716-36.737h-0.048l-1.667-3.338c-12.988,0.637-27.167,5.727-27.802,5.956 c-0.231,0.082-0.38,0.258-0.594,0.364c-0.46,0.219-0.882,0.466-1.283,0.777c-0.343,0.266-0.626,0.544-0.904,0.864 c-0.306,0.342-0.572,0.695-0.808,1.097c-0.234,0.405-0.406,0.818-0.563,1.267c-0.084,0.247-0.25,0.438-0.31,0.7L0.167,109.805 c-0.833,3.774,1.541,7.513,5.316,8.354c0.518,0.116,1.027,0.171,1.524,0.171c3.212,0,6.109-2.228,6.838-5.489l10.344-46.533 c0.722-0.225,1.541-0.466,2.43-0.714v47.812l-5.574,69.318c-0.369,4.624,3.076,8.68,7.706,9.045 c0.229,0.018,0.453,0.027,0.684,0.027c4.331,0,8.01-3.33,8.363-7.731l5.038-62.646c1.042,0.457,2.185,0.72,3.39,0.72 c1.207,0,2.356-0.263,3.389-0.72l5.041,62.646c0.353,4.401,4.032,7.731,8.363,7.731c0.231,0,0.456-0.005,0.684-0.027 c4.629-0.365,8.075-4.427,7.706-9.045l-5.577-69.318V65.593c3.561,1.009,5.962,1.866,6.025,1.885 c0.026,0.011,0.054,0.006,0.089,0.011c0.027,0.011,0.049,0.033,0.077,0.044l10.272,3.423v37.721 c0,6.186,5.026,11.206,11.206,11.206h20.399l-17.888,66.792c-0.6,2.244,0.733,4.547,2.968,5.144 c0.366,0.099,0.736,0.142,1.089,0.142c1.858,0,3.555-1.236,4.059-3.119l18.48-68.963h14.325v48.871 c0,2.32,1.881,4.202,4.201,4.202s4.202-1.882,4.202-4.202v-48.871h14.326l18.475,68.963c0.509,1.883,2.204,3.119,4.063,3.119 c0.351,0,0.723-0.043,1.089-0.142c2.235-0.597,3.574-2.905,2.968-5.144l-17.888-66.792h20.399c6.177,0,11.206-5.021,11.206-11.206 V41.438C199.979,35.259,194.945,30.23,188.772,30.23z M194.376,108.677c0,3.086-2.512,5.604-5.604,5.604H93.519 c-3.093,0-5.603-2.518-5.603-5.604V72.828l17.742,5.917c0.738,0.24,1.485,0.358,2.222,0.358c2.928,0,5.669-1.86,6.646-4.791 c0.162-0.493,0.131-0.985,0.178-1.485l42.107-19.484c0.7-0.323,1.007-1.16,0.681-1.861c-0.323-0.7-1.154-1.012-1.863-0.681 L114.399,69.88c-0.676-1.999-2.147-3.71-4.304-4.432l-22.175-7.39V41.438c0-3.086,2.51-5.604,5.604-5.604h95.253 c3.092,0,5.604,2.518,5.604,5.604v67.239H194.376z"/><path d="M46.239,46.846c9.771,0,17.704-11.341,17.704-21.12c0-9.784-7.933-17.712-17.704-17.712 c-9.784,0-17.719,7.935-17.719,17.712C28.52,35.505,36.455,46.846,46.239,46.846z"/><path d="M164.159,64.436l-10.143,8.129c-0.298,0.241-0.473,0.6-0.473,0.982v11.328h-19.064c-0.698,0-1.259,0.565-1.259,1.261 v11.33h-19.064c-0.695,0-1.257,0.563-1.257,1.265c0,0.688,0.557,1.258,1.252,1.258h20.324c0.693,0,1.262-0.569,1.262-1.258V87.396 h19.064c0.69,0,1.26-0.561,1.26-1.261V74.151l9.882-7.929l2.459,2.456l2.895-9.276l-9.277,2.893L164.159,64.436z"/><rect x="118.2" y="77.574" width="10.271" height="17.276"/><rect x="138.512" y="64.441" width="10.271" height="17.275"/></symbol><symbol id="magnifying-glass" viewBox="0 0 451 451"><title>magnifying-glass</title><path d="M447.05,428l-109.6-109.6c29.4-33.8,47.2-77.9,47.2-126.1C384.65,86.2,298.35,0,192.35,0C86.25,0,0.05,86.3,0.05,192.3 s86.3,192.3,192.3,192.3c48.2,0,92.3-17.8,126.1-47.2L428.05,447c2.6,2.6,6.1,4,9.5,4s6.9-1.3,9.5-4 C452.25,441.8,452.25,433.2,447.05,428z M26.95,192.3c0-91.2,74.2-165.3,165.3-165.3c91.2,0,165.3,74.2,165.3,165.3 s-74.1,165.4-165.3,165.4C101.15,357.7,26.95,283.5,26.95,192.3z"/></symbol><symbol id="broken-link" viewBox="0 0 54.971 54.971"><title>broken-link</title><path d="M51.173,3.801c-5.068-5.068-13.315-5.066-18.384,0l-9.192,9.192c-0.781,0.781-0.781,2.047,0,2.828s2.047,0.781,2.828,0 l9.192-9.192c1.691-1.69,3.951-2.622,6.363-2.622c2.413,0,4.673,0.932,6.364,2.623s2.623,3.951,2.623,6.364 c0,2.412-0.932,4.672-2.623,6.363L36.325,31.379c-3.51,3.508-9.219,3.508-12.729,0c-0.781-0.781-2.047-0.781-2.828,0 s-0.781,2.048,0,2.828c2.534,2.534,5.863,3.801,9.192,3.801s6.658-1.267,9.192-3.801l12.021-12.021 c2.447-2.446,3.795-5.711,3.795-9.192C54.968,9.512,53.62,6.248,51.173,3.801z"/><path d="M27.132,40.57l-7.778,7.778c-1.691,1.691-3.951,2.623-6.364,2.623c-2.412,0-4.673-0.932-6.364-2.623 c-3.509-3.509-3.509-9.219,0-12.728L17.94,24.306c1.691-1.69,3.951-2.622,6.364-2.622c2.412,0,4.672,0.932,6.363,2.622 c0.781,0.781,2.047,0.781,2.828,0s0.781-2.047,0-2.828c-5.067-5.067-13.314-5.068-18.384,0L3.797,32.793 c-2.446,2.446-3.794,5.711-3.794,9.192c0,3.48,1.348,6.745,3.795,9.191c2.446,2.447,5.711,3.795,9.191,3.795 c3.481,0,6.746-1.348,9.192-3.795l7.778-7.778c0.781-0.781,0.781-2.047,0-2.828S27.913,39.789,27.132,40.57z"/><path d="M34.003,44.007c-1.104,0-2,0.896-2,2v6c0,1.104,0.896,2,2,2s2-0.896,2-2v-6C36.003,44.902,35.108,44.007,34.003,44.007z"/><path d="M41.175,42.593c-0.781-0.781-2.047-0.781-2.828,0s-0.781,2.047,0,2.828l4.242,4.242c0.391,0.391,0.902,0.586,1.414,0.586 s1.023-0.195,1.414-0.586c0.781-0.781,0.781-2.047,0-2.828L41.175,42.593z"/><path d="M45.968,36.007h-6c-1.104,0-2,0.896-2,2s0.896,2,2,2h6c1.104,0,2-0.896,2-2S47.073,36.007,45.968,36.007z"/><path d="M18.003,13.007c1.104,0,2-0.896,2-2v-6c0-1.104-0.896-2-2-2s-2,0.896-2,2v6C16.003,12.111,16.899,13.007,18.003,13.007z"/><path d="M10.589,14.421c0.391,0.391,0.902,0.586,1.414,0.586s1.023-0.195,1.414-0.586c0.781-0.781,0.781-2.047,0-2.828L9.175,7.35 c-0.781-0.781-2.047-0.781-2.828,0s-0.781,2.047,0,2.828L10.589,14.421z"/><path d="M5.968,21.007h6c1.104,0,2-0.896,2-2s-0.896-2-2-2h-6c-1.104,0-2,0.896-2,2S4.864,21.007,5.968,21.007z"/></symbol></svg>