<?xml version="1.0" encoding="iso-8859-1"?>
<!-- Generator: Adobe Illustrator 19.0.0, SVG Export Plug-In . SVG Version: 6.00 Build 0)  -->
<svg version="1.1" id="Capa_1" xmlns="http://www.w3.org/2000/svg" xmlns:xlink="http://www.w3.org/1999/xlink" x="0px" y="0px"
	 viewBox="0 0 512 512" style="enable-background:new 0 0 512 512;" xml:space="preserve">
<g>
	<g>
		<path d="M405.333,42.667h-44.632c-4.418-12.389-16.147-21.333-30.035-21.333h-32.219C288.427,8.042,272.677,0,256,0
			s-32.427,8.042-42.448,21.333h-32.219c-13.888,0-25.617,8.944-30.035,21.333h-44.631C83.135,42.667,64,61.802,64,85.333v384
			C64,492.865,83.135,512,106.667,512h298.667C428.865,512,448,492.865,448,469.333v-384C448,61.802,428.865,42.667,405.333,42.667z
			 M170.667,53.333c0-5.885,4.781-10.667,10.667-10.667h37.917c3.792,0,7.302-2.021,9.219-5.302
			c5.844-10.042,16.135-16.031,27.531-16.031s21.688,5.99,27.531,16.031c1.917,3.281,5.427,5.302,9.219,5.302h37.917
			c5.885,0,10.667,4.781,10.667,10.667V64c0,11.76-9.573,21.333-21.333,21.333H192c-11.76,0-21.333-9.573-21.333-21.333V53.333z
			 M352,448H160c-5.896,0-10.667-4.771-10.667-10.667c0-5.896,4.771-10.667,10.667-10.667h192c5.896,0,10.667,4.771,10.667,10.667
			C362.667,443.229,357.896,448,352,448z M352,384H160c-5.896,0-10.667-4.771-10.667-10.667c0-5.896,4.771-10.667,10.667-10.667h192
			c5.896,0,10.667,4.771,10.667,10.667C362.667,379.229,357.896,384,352,384z M352,277.333h-21.333
			c-4.042,0-7.729-2.281-9.542-5.896l-10.396-20.792l-23.406,62.438c-1.573,4.177-5.563,6.917-9.99,6.917
			c-0.198,0-0.406-0.01-0.604-0.021c-4.667-0.26-8.615-3.531-9.74-8.063l-25.01-100.021l-29.771,59.542
			c-1.813,3.615-5.5,5.896-9.542,5.896H160c-5.896,0-10.667-4.771-10.667-10.667c0-5.896,4.771-10.667,10.667-10.667h36.073
			l39.719-79.438c2-3.99,6.219-6.281,10.708-5.833c4.438,0.49,8.094,3.688,9.177,8.021l23.698,94.76l19.969-53.26
			c1.49-3.969,5.198-6.677,9.427-6.906c4.396-0.125,8.219,2.094,10.104,5.885L337.26,256H352c5.896,0,10.667,4.771,10.667,10.667
			C362.667,272.563,357.896,277.333,352,277.333z"/>
	</g>
</g>
<g>
</g>
<g>
</g>
<g>
</g>
<g>
</g>
<g>
</g>
<g>
</g>
<g>
</g>
<g>
</g>
<g>
</g>
<g>
</g>
<g>
</g>
<g>
</g>
<g>
</g>
<g>
</g>
<g>
</g>
</svg>
