<svg xmlns="http://www.w3.org/2000/svg" viewBox="0 0 281.4 228"><title>workstation</title><path d="M239.7,201.6H92.1a7.5,7.5,0,0,0-7.5,7.5v4.5a7.5,7.5,0,0,0,7.5,7.5H264.6V201.6Z" fill="#385f7e"/><circle cx="76.4" cy="41.6" r="41.6" fill="#385f7e"/><path d="M178.1,143.7l-95.5.4H80.3V123.8a40,40,0,0,0-40.1-40H37.8A37.7,37.7,0,0,0,0,121.5V228H80.3V182.4H79.1A19.4,19.4,0,0,1,64.7,176L32.1,140.4a2.8,2.8,0,1,1,4.1-3.8l32.6,35.6A14.4,14.4,0,0,0,79.2,177h98.9a16.6,16.6,0,1,0,0-33.3Z" fill="#385f7e"/><path d="M276.4,85a7.4,7.4,0,0,0-9.4,4.6l-31.4,91.7H123.3a7.5,7.5,0,0,0-7.6,7.2,7.4,7.4,0,0,0,7.4,7.7H240.8a7.9,7.9,0,0,0,7.2-5.3L281,94.4A7.4,7.4,0,0,0,276.4,85Z" fill="#338c5f"/></svg>